<mxfile host="Electron" modified="2023-11-14T16:47:12.861Z" agent="Mozilla/5.0 (X11; Linux x86_64) AppleWebKit/537.36 (KHTML, like Gecko) draw.io/22.0.3 Chrome/114.0.5735.289 Electron/25.8.4 Safari/537.36" etag="nM-3mVvnB9XcCELHx4B3" version="22.0.3" type="device">
  <diagram name="testbed" id="RwEu7nEoz5uVxEb1Gh18">
    <mxGraphModel dx="-191" dy="-19" grid="1" gridSize="10" guides="1" tooltips="1" connect="1" arrows="1" fold="1" page="1" pageScale="1" pageWidth="850" pageHeight="1100" math="0" shadow="0">
      <root>
        <mxCell id="CZO-bo_SYOmzc7dONZGa-0" />
        <mxCell id="CZO-bo_SYOmzc7dONZGa-1" parent="CZO-bo_SYOmzc7dONZGa-0" />
        <mxCell id="W51o4Iua4-ii0zJVEHU4-1" value="" style="rounded=0;whiteSpace=wrap;html=1;strokeColor=none;fillColor=#EFF2E0;" vertex="1" parent="CZO-bo_SYOmzc7dONZGa-1">
          <mxGeometry x="1860" y="1475" width="460" height="250" as="geometry" />
        </mxCell>
        <mxCell id="cNsvWR_AwZKdMMvXxgLG-0" style="edgeStyle=orthogonalEdgeStyle;rounded=0;orthogonalLoop=1;jettySize=auto;html=1;fontSize=9;endArrow=none;endFill=0;strokeWidth=1;dashed=1;dashPattern=1 1;exitX=0.765;exitY=-0.023;exitDx=0;exitDy=0;entryX=0.508;entryY=1.001;entryDx=0;entryDy=0;entryPerimeter=0;exitPerimeter=0;" parent="CZO-bo_SYOmzc7dONZGa-1" source="cNsvWR_AwZKdMMvXxgLG-6" edge="1">
          <mxGeometry relative="1" as="geometry">
            <mxPoint x="2253.6499999999996" y="1532" as="sourcePoint" />
            <mxPoint x="2253.6499999999996" y="1517" as="targetPoint" />
          </mxGeometry>
        </mxCell>
        <mxCell id="cNsvWR_AwZKdMMvXxgLG-1" value="&lt;font face=&quot;helvetica&quot; size=&quot;1&quot;&gt;&lt;span style=&quot;font-size: 9px&quot;&gt;Overlay network&lt;br&gt;&lt;/span&gt;&lt;/font&gt;" style="rounded=1;whiteSpace=wrap;html=1;dashed=1;fontSize=10;align=left;horizontal=1;verticalAlign=middle;strokeColor=none;fillColor=#CCCCCC;sketch=0;glass=0;shadow=0;spacingBottom=2;spacingLeft=6;spacing=2;arcSize=50;" parent="CZO-bo_SYOmzc7dONZGa-1" vertex="1">
          <mxGeometry x="1998.24" y="1511" width="300" height="15" as="geometry" />
        </mxCell>
        <mxCell id="cNsvWR_AwZKdMMvXxgLG-2" value="" style="edgeStyle=orthogonalEdgeStyle;rounded=0;orthogonalLoop=1;jettySize=auto;html=1;entryX=0.5;entryY=1;entryDx=0;entryDy=0;endArrow=none;endFill=0;" parent="CZO-bo_SYOmzc7dONZGa-1" source="cNsvWR_AwZKdMMvXxgLG-28" target="cNsvWR_AwZKdMMvXxgLG-33" edge="1">
          <mxGeometry relative="1" as="geometry" />
        </mxCell>
        <mxCell id="cNsvWR_AwZKdMMvXxgLG-3" value="" style="edgeStyle=orthogonalEdgeStyle;rounded=0;orthogonalLoop=1;jettySize=auto;html=1;entryX=0.5;entryY=1;entryDx=0;entryDy=0;endArrow=none;endFill=0;" parent="CZO-bo_SYOmzc7dONZGa-1" source="cNsvWR_AwZKdMMvXxgLG-27" target="cNsvWR_AwZKdMMvXxgLG-32" edge="1">
          <mxGeometry relative="1" as="geometry" />
        </mxCell>
        <mxCell id="cNsvWR_AwZKdMMvXxgLG-4" style="edgeStyle=orthogonalEdgeStyle;rounded=0;orthogonalLoop=1;jettySize=auto;html=1;fontSize=9;endArrow=none;endFill=0;strokeWidth=1;dashed=1;dashPattern=1 1;entryX=0.517;entryY=0.996;entryDx=0;entryDy=0;entryPerimeter=0;" parent="CZO-bo_SYOmzc7dONZGa-1" target="cNsvWR_AwZKdMMvXxgLG-1" edge="1">
          <mxGeometry relative="1" as="geometry">
            <mxPoint x="2153.24" y="1551" as="sourcePoint" />
            <mxPoint x="2153.74" y="1519" as="targetPoint" />
          </mxGeometry>
        </mxCell>
        <mxCell id="cNsvWR_AwZKdMMvXxgLG-5" value="K3s master&amp;nbsp;" style="rounded=0;whiteSpace=wrap;html=1;fontSize=10;fillColor=#D8AC38;fontColor=#000000;" parent="CZO-bo_SYOmzc7dONZGa-1" vertex="1">
          <mxGeometry x="2108.35" y="1572" width="90" height="20" as="geometry" />
        </mxCell>
        <mxCell id="cNsvWR_AwZKdMMvXxgLG-6" value="Application" style="rounded=0;whiteSpace=wrap;html=1;fontSize=10;fillColor=#2C6EA8;fontColor=#FFFFFF;" parent="CZO-bo_SYOmzc7dONZGa-1" vertex="1">
          <mxGeometry x="2108.35" y="1552" width="189.89" height="20" as="geometry" />
        </mxCell>
        <mxCell id="cNsvWR_AwZKdMMvXxgLG-7" value="K3s worker&amp;nbsp;" style="rounded=0;whiteSpace=wrap;html=1;fontSize=10;fillColor=#D8AC38;fontColor=#000000;" parent="CZO-bo_SYOmzc7dONZGa-1" vertex="1">
          <mxGeometry x="2208.35" y="1572" width="89.89" height="20" as="geometry" />
        </mxCell>
        <mxCell id="cNsvWR_AwZKdMMvXxgLG-8" value="" style="endArrow=none;dashed=1;html=1;rounded=0;strokeWidth=1;startArrow=block;startFill=1;" parent="CZO-bo_SYOmzc7dONZGa-1" edge="1">
          <mxGeometry width="50" height="50" relative="1" as="geometry">
            <mxPoint x="2098.6300000000006" y="1511" as="sourcePoint" />
            <mxPoint x="2098.7400000000002" y="1493" as="targetPoint" />
          </mxGeometry>
        </mxCell>
        <mxCell id="cNsvWR_AwZKdMMvXxgLG-9" value="" style="endArrow=none;dashed=1;html=1;rounded=0;strokeWidth=1;startArrow=block;startFill=1;" parent="CZO-bo_SYOmzc7dONZGa-1" edge="1">
          <mxGeometry width="50" height="50" relative="1" as="geometry">
            <mxPoint x="2203.74" y="1511" as="sourcePoint" />
            <mxPoint x="2203.74" y="1494" as="targetPoint" />
          </mxGeometry>
        </mxCell>
        <mxCell id="cNsvWR_AwZKdMMvXxgLG-10" value="" style="endArrow=none;dashed=1;html=1;rounded=0;strokeWidth=1;" parent="CZO-bo_SYOmzc7dONZGa-1" edge="1">
          <mxGeometry width="50" height="50" relative="1" as="geometry">
            <mxPoint x="2203.74" y="1493" as="sourcePoint" />
            <mxPoint x="2097.7400000000002" y="1493" as="targetPoint" />
          </mxGeometry>
        </mxCell>
        <mxCell id="cNsvWR_AwZKdMMvXxgLG-11" value="&lt;font face=&quot;helvetica&quot;&gt;network emulator&lt;/font&gt;" style="text;whiteSpace=wrap;html=1;fontSize=10;align=center;verticalAlign=middle;" parent="CZO-bo_SYOmzc7dONZGa-1" vertex="1">
          <mxGeometry x="2103.24" y="1480" width="95.12" height="11.99" as="geometry" />
        </mxCell>
        <mxCell id="cNsvWR_AwZKdMMvXxgLG-12" value="&lt;font face=&quot;helvetica&quot; size=&quot;1&quot;&gt;&lt;b style=&quot;font-size: 9px&quot;&gt;&lt;br&gt;&lt;/b&gt;&lt;/font&gt;" style="rounded=0;whiteSpace=wrap;html=1;dashed=1;fontSize=10;align=center;horizontal=1;verticalAlign=middle;strokeColor=none;fillColor=#E6E6E6;" parent="CZO-bo_SYOmzc7dONZGa-1" vertex="1">
          <mxGeometry x="2093.7400000000002" y="1511.03" width="10" height="14.97" as="geometry" />
        </mxCell>
        <mxCell id="cNsvWR_AwZKdMMvXxgLG-13" value="" style="endArrow=none;dashed=1;html=1;rounded=0;strokeWidth=1;" parent="CZO-bo_SYOmzc7dONZGa-1" edge="1">
          <mxGeometry width="50" height="50" relative="1" as="geometry">
            <mxPoint x="2103.7400000000002" y="1531.99" as="sourcePoint" />
            <mxPoint x="2103.35" y="1502.02" as="targetPoint" />
          </mxGeometry>
        </mxCell>
        <mxCell id="cNsvWR_AwZKdMMvXxgLG-14" value="" style="endArrow=none;dashed=1;html=1;rounded=0;strokeWidth=1;" parent="CZO-bo_SYOmzc7dONZGa-1" edge="1">
          <mxGeometry width="50" height="50" relative="1" as="geometry">
            <mxPoint x="2093.7400000000002" y="1531.99" as="sourcePoint" />
            <mxPoint x="2093.7400000000002" y="1502" as="targetPoint" />
          </mxGeometry>
        </mxCell>
        <mxCell id="cNsvWR_AwZKdMMvXxgLG-15" value="&lt;font face=&quot;helvetica&quot; size=&quot;1&quot;&gt;&lt;b style=&quot;font-size: 9px&quot;&gt;&lt;br&gt;&lt;/b&gt;&lt;/font&gt;" style="rounded=0;whiteSpace=wrap;html=1;dashed=1;fontSize=10;align=center;horizontal=1;verticalAlign=middle;strokeColor=none;fillColor=#E6E6E6;" parent="CZO-bo_SYOmzc7dONZGa-1" vertex="1">
          <mxGeometry x="2198.54" y="1511.03" width="10" height="14.97" as="geometry" />
        </mxCell>
        <mxCell id="cNsvWR_AwZKdMMvXxgLG-16" value="" style="endArrow=none;dashed=1;html=1;rounded=0;strokeWidth=1;" parent="CZO-bo_SYOmzc7dONZGa-1" edge="1">
          <mxGeometry width="50" height="50" relative="1" as="geometry">
            <mxPoint x="2208.54" y="1531.99" as="sourcePoint" />
            <mxPoint x="2208.1499999999996" y="1502.02" as="targetPoint" />
          </mxGeometry>
        </mxCell>
        <mxCell id="cNsvWR_AwZKdMMvXxgLG-17" value="" style="endArrow=none;dashed=1;html=1;rounded=0;strokeWidth=1;" parent="CZO-bo_SYOmzc7dONZGa-1" edge="1">
          <mxGeometry width="50" height="50" relative="1" as="geometry">
            <mxPoint x="2198.54" y="1531.99" as="sourcePoint" />
            <mxPoint x="2198.54" y="1502" as="targetPoint" />
          </mxGeometry>
        </mxCell>
        <mxCell id="cNsvWR_AwZKdMMvXxgLG-18" value="Benchmarking tool" style="rounded=0;whiteSpace=wrap;html=1;fontSize=10;fillColor=#333333;fontColor=#FFFFFF;strokeColor=#000000;" parent="CZO-bo_SYOmzc7dONZGa-1" vertex="1">
          <mxGeometry x="1998.74" y="1592" width="90" height="20" as="geometry" />
        </mxCell>
        <mxCell id="cNsvWR_AwZKdMMvXxgLG-19" value="" style="edgeStyle=orthogonalEdgeStyle;rounded=0;orthogonalLoop=1;jettySize=auto;html=1;fontSize=10;endArrow=block;endFill=1;" parent="CZO-bo_SYOmzc7dONZGa-1" source="cNsvWR_AwZKdMMvXxgLG-21" target="cNsvWR_AwZKdMMvXxgLG-27" edge="1">
          <mxGeometry relative="1" as="geometry" />
        </mxCell>
        <mxCell id="cNsvWR_AwZKdMMvXxgLG-20" value="" style="rounded=0;orthogonalLoop=1;jettySize=auto;html=1;endArrow=none;endFill=0;entryX=0.5;entryY=1;entryDx=0;entryDy=0;" parent="CZO-bo_SYOmzc7dONZGa-1" source="cNsvWR_AwZKdMMvXxgLG-21" target="cNsvWR_AwZKdMMvXxgLG-18" edge="1">
          <mxGeometry relative="1" as="geometry">
            <mxPoint x="2018.24" y="1621" as="sourcePoint" />
            <mxPoint x="2088.24" y="1591" as="targetPoint" />
          </mxGeometry>
        </mxCell>
        <mxCell id="cNsvWR_AwZKdMMvXxgLG-21" value="Tester&lt;br style=&quot;font-size: 10px;&quot;&gt;node" style="sketch=0;pointerEvents=1;shadow=0;dashed=0;html=1;strokeColor=none;fillColor=#333333;labelPosition=center;verticalLabelPosition=bottom;verticalAlign=top;outlineConnect=0;align=center;shape=mxgraph.office.concepts.node_generic;fontSize=10;spacingLeft=-50;spacingTop=-12;" parent="CZO-bo_SYOmzc7dONZGa-1" vertex="1">
          <mxGeometry x="2025.7400000000002" y="1625" width="36" height="40.7" as="geometry" />
        </mxCell>
        <mxCell id="cNsvWR_AwZKdMMvXxgLG-22" value="" style="edgeStyle=orthogonalEdgeStyle;rounded=0;orthogonalLoop=1;jettySize=auto;html=1;endArrow=block;endFill=1;fontSize=10;dashed=1;dashPattern=1 1;" parent="CZO-bo_SYOmzc7dONZGa-1" source="cNsvWR_AwZKdMMvXxgLG-25" target="cNsvWR_AwZKdMMvXxgLG-21" edge="1">
          <mxGeometry relative="1" as="geometry" />
        </mxCell>
        <mxCell id="cNsvWR_AwZKdMMvXxgLG-23" value="" style="edgeStyle=orthogonalEdgeStyle;rounded=0;orthogonalLoop=1;jettySize=auto;html=1;endArrow=block;endFill=1;dashed=1;dashPattern=1 1;" parent="CZO-bo_SYOmzc7dONZGa-1" source="cNsvWR_AwZKdMMvXxgLG-25" target="cNsvWR_AwZKdMMvXxgLG-27" edge="1">
          <mxGeometry relative="1" as="geometry" />
        </mxCell>
        <mxCell id="cNsvWR_AwZKdMMvXxgLG-24" style="edgeStyle=orthogonalEdgeStyle;rounded=0;orthogonalLoop=1;jettySize=auto;html=1;endArrow=block;endFill=1;dashed=1;dashPattern=1 1;" parent="CZO-bo_SYOmzc7dONZGa-1" source="cNsvWR_AwZKdMMvXxgLG-25" target="cNsvWR_AwZKdMMvXxgLG-28" edge="1">
          <mxGeometry relative="1" as="geometry" />
        </mxCell>
        <mxCell id="cNsvWR_AwZKdMMvXxgLG-25" value="" style="sketch=0;pointerEvents=1;shadow=0;dashed=0;html=1;strokeColor=none;fillColor=#CCCCCC;labelPosition=center;verticalLabelPosition=bottom;verticalAlign=top;outlineConnect=0;align=center;shape=mxgraph.office.concepts.node_generic;fontSize=10;spacingLeft=-65;spacingTop=-12;" parent="CZO-bo_SYOmzc7dONZGa-1" vertex="1">
          <mxGeometry x="1912.74" y="1675" width="36" height="40.7" as="geometry" />
        </mxCell>
        <mxCell id="cNsvWR_AwZKdMMvXxgLG-26" value="" style="edgeStyle=orthogonalEdgeStyle;rounded=0;orthogonalLoop=1;jettySize=auto;html=1;fontSize=10;endArrow=block;endFill=1;" parent="CZO-bo_SYOmzc7dONZGa-1" source="cNsvWR_AwZKdMMvXxgLG-27" target="cNsvWR_AwZKdMMvXxgLG-28" edge="1">
          <mxGeometry relative="1" as="geometry" />
        </mxCell>
        <mxCell id="cNsvWR_AwZKdMMvXxgLG-27" value="Head&lt;br style=&quot;font-size: 10px;&quot;&gt;node" style="sketch=0;pointerEvents=1;shadow=0;dashed=0;html=1;strokeColor=none;fillColor=#2C6EA8;labelPosition=center;verticalLabelPosition=bottom;verticalAlign=top;outlineConnect=0;align=center;shape=mxgraph.office.concepts.node_generic;fontSize=10;spacingLeft=-50;spacingTop=-12;" parent="CZO-bo_SYOmzc7dONZGa-1" vertex="1">
          <mxGeometry x="2135.35" y="1625" width="36" height="40.7" as="geometry" />
        </mxCell>
        <mxCell id="cNsvWR_AwZKdMMvXxgLG-28" value="Worker&lt;br style=&quot;font-size: 10px;&quot;&gt;nodes" style="sketch=0;pointerEvents=1;shadow=0;dashed=0;html=1;strokeColor=none;fillColor=#3A92DE;labelPosition=center;verticalLabelPosition=bottom;verticalAlign=top;outlineConnect=0;align=center;shape=mxgraph.office.concepts.node_generic;fontSize=10;spacingLeft=-50;spacingTop=-12;" parent="CZO-bo_SYOmzc7dONZGa-1" vertex="1">
          <mxGeometry x="2235.6899999999996" y="1625" width="36" height="40.7" as="geometry" />
        </mxCell>
        <mxCell id="cNsvWR_AwZKdMMvXxgLG-29" style="edgeStyle=orthogonalEdgeStyle;rounded=0;orthogonalLoop=1;jettySize=auto;html=1;exitX=0.5;exitY=1;exitDx=0;exitDy=0;endArrow=block;endFill=1;" parent="CZO-bo_SYOmzc7dONZGa-1" source="cNsvWR_AwZKdMMvXxgLG-30" target="cNsvWR_AwZKdMMvXxgLG-25" edge="1">
          <mxGeometry relative="1" as="geometry" />
        </mxCell>
        <mxCell id="cNsvWR_AwZKdMMvXxgLG-30" value="BenchFaster" style="rounded=0;whiteSpace=wrap;html=1;fontSize=10;fillColor=#743226;strokeColor=#000000;fontColor=#FFFFFF;" parent="CZO-bo_SYOmzc7dONZGa-1" vertex="1">
          <mxGeometry x="1885.74" y="1592" width="90" height="20" as="geometry" />
        </mxCell>
        <mxCell id="cNsvWR_AwZKdMMvXxgLG-31" value="Nx" style="ellipse;whiteSpace=wrap;html=1;aspect=fixed;fontSize=10;spacing=0;spacingTop=-1;spacingLeft=2;" parent="CZO-bo_SYOmzc7dONZGa-1" vertex="1">
          <mxGeometry x="2263.9799999999996" y="1625" width="21.02" height="21.02" as="geometry" />
        </mxCell>
        <mxCell id="cNsvWR_AwZKdMMvXxgLG-32" value="Nebula lighthouse" style="rounded=0;whiteSpace=wrap;html=1;fontSize=10;fillColor=#CCCCCC;fontColor=#000000;" parent="CZO-bo_SYOmzc7dONZGa-1" vertex="1">
          <mxGeometry x="2108.3500000000004" y="1592" width="90" height="20" as="geometry" />
        </mxCell>
        <mxCell id="cNsvWR_AwZKdMMvXxgLG-33" value="Nebula host" style="rounded=0;whiteSpace=wrap;html=1;fontSize=10;fillColor=#CCCCCC;fontColor=#000000;" parent="CZO-bo_SYOmzc7dONZGa-1" vertex="1">
          <mxGeometry x="2208.35" y="1592" width="89.89" height="20" as="geometry" />
        </mxCell>
        <mxCell id="cNsvWR_AwZKdMMvXxgLG-34" value="" style="edgeStyle=orthogonalEdgeStyle;rounded=0;orthogonalLoop=1;jettySize=auto;html=1;endArrow=block;endFill=1;exitX=0.5;exitY=1;exitDx=0;exitDy=0;exitPerimeter=0;entryX=0.5;entryY=0;entryDx=0;entryDy=0;" parent="CZO-bo_SYOmzc7dONZGa-1" source="cNsvWR_AwZKdMMvXxgLG-35" target="cNsvWR_AwZKdMMvXxgLG-30" edge="1">
          <mxGeometry relative="1" as="geometry">
            <mxPoint x="1930.1" y="1603.24" as="targetPoint" />
            <Array as="points">
              <mxPoint x="1902.24" y="1576.54" />
              <mxPoint x="1931.24" y="1576.54" />
            </Array>
          </mxGeometry>
        </mxCell>
        <mxCell id="cNsvWR_AwZKdMMvXxgLG-35" value="inventory" style="verticalLabelPosition=bottom;html=1;verticalAlign=top;align=center;strokeColor=none;fillColor=#000000;shape=mxgraph.azure.cloud_services_configuration_file;pointerEvents=1;fontSize=10;spacingTop=-50;" parent="CZO-bo_SYOmzc7dONZGa-1" vertex="1">
          <mxGeometry x="1888.8899999999999" y="1537.54" width="27" height="30" as="geometry" />
        </mxCell>
        <mxCell id="cNsvWR_AwZKdMMvXxgLG-36" value="" style="edgeStyle=orthogonalEdgeStyle;rounded=0;orthogonalLoop=1;jettySize=auto;html=1;endArrow=block;endFill=1;exitX=0.5;exitY=1;exitDx=0;exitDy=0;exitPerimeter=0;entryX=0.5;entryY=0;entryDx=0;entryDy=0;" parent="CZO-bo_SYOmzc7dONZGa-1" source="cNsvWR_AwZKdMMvXxgLG-37" target="cNsvWR_AwZKdMMvXxgLG-30" edge="1">
          <mxGeometry relative="1" as="geometry">
            <mxPoint x="1930.1" y="1603.24" as="targetPoint" />
            <Array as="points">
              <mxPoint x="1959.24" y="1576.54" />
              <mxPoint x="1930.24" y="1576.54" />
            </Array>
          </mxGeometry>
        </mxCell>
        <mxCell id="cNsvWR_AwZKdMMvXxgLG-37" value="playbook" style="verticalLabelPosition=bottom;html=1;verticalAlign=top;align=center;strokeColor=none;fillColor=#000000;shape=mxgraph.azure.cloud_services_configuration_file;pointerEvents=1;spacingTop=-50;fontSize=10;" parent="CZO-bo_SYOmzc7dONZGa-1" vertex="1">
          <mxGeometry x="1945.58" y="1537.54" width="27" height="30" as="geometry" />
        </mxCell>
        <mxCell id="cNsvWR_AwZKdMMvXxgLG-38" value="&lt;span style=&quot;color: rgb(0, 0, 0); font-family: Helvetica; font-size: 10px; font-style: normal; font-variant-ligatures: normal; font-variant-caps: normal; font-weight: 400; letter-spacing: normal; orphans: 2; text-indent: 0px; text-transform: none; widows: 2; word-spacing: 0px; -webkit-text-stroke-width: 0px; text-decoration-thickness: initial; text-decoration-style: initial; text-decoration-color: initial; float: none; display: inline !important;&quot;&gt;Ansible&lt;/span&gt;&lt;br style=&quot;border-color: var(--border-color); color: rgb(0, 0, 0); font-family: Helvetica; font-size: 10px; font-style: normal; font-variant-ligatures: normal; font-variant-caps: normal; font-weight: 400; letter-spacing: normal; orphans: 2; text-indent: 0px; text-transform: none; widows: 2; word-spacing: 0px; -webkit-text-stroke-width: 0px; text-decoration-thickness: initial; text-decoration-style: initial; text-decoration-color: initial;&quot;&gt;&lt;span style=&quot;color: rgb(0, 0, 0); font-family: Helvetica; font-size: 10px; font-style: normal; font-variant-ligatures: normal; font-variant-caps: normal; font-weight: 400; letter-spacing: normal; orphans: 2; text-indent: 0px; text-transform: none; widows: 2; word-spacing: 0px; -webkit-text-stroke-width: 0px; text-decoration-thickness: initial; text-decoration-style: initial; text-decoration-color: initial; float: none; display: inline !important;&quot;&gt;control &lt;br&gt;node&lt;/span&gt;" style="text;whiteSpace=wrap;html=1;align=center;" parent="CZO-bo_SYOmzc7dONZGa-1" vertex="1">
          <mxGeometry x="1881.08" y="1632" width="52" height="50" as="geometry" />
        </mxCell>
        <mxCell id="W51o4Iua4-ii0zJVEHU4-0" value="" style="shape=image;verticalLabelPosition=bottom;labelBackgroundColor=default;verticalAlign=top;aspect=fixed;imageAspect=0;image=data:image/png,iVBORw0KGgoAAAANSUhEUgAABlUAAAGjCAIAAAA6ngT+AAAAYGVYSWZJSSoACAAAAAMAEgEDAAEAAAABAAAAMQECABAAAAAyAAAAaYcEAAEAAABCAAAAAAAAAFNob3R3ZWxsIDAuMzIuMgACAAKgCQABAAAAVQYAAAOgCQABAAAAowEAAAAAAABbQEEWAAAKCGlUWHRYTUw6Y29tLmFkb2JlLnhtcAAAAAAAPD94cGFja2V0IGJlZ2luPSLvu78iIGlkPSJXNU0wTXBDZWhpSHpyZVN6TlRjemtjOWQiPz4KPHg6eG1wbWV0YSB4bWxuczp4PSJhZG9iZTpuczptZXRhLyIgeDp4bXB0az0iWE1QIENvcmUgNC40LjAtRXhpdjIiPgogPHJkZjpSREYgeG1sbnM6cmRmPSJodHRwOi8vd3d3LnczLm9yZy8xOTk5LzAyLzIyLXJkZi1zeW50YXgtbnMjIj4KICA8cmRmOkRlc2NyaXB0aW9uIHJkZjphYm91dD0iIgogICAgeG1sbnM6ZXhpZj0iaHR0cDovL25zLmFkb2JlLmNvbS9leGlmLzEuMC8iCiAgICB4bWxuczp0aWZmPSJodHRwOi8vbnMuYWRvYmUuY29tL3RpZmYvMS4wLyIKICAgZXhpZjpQaXhlbFhEaW1lbnNpb249IjE2MjEiCiAgIGV4aWY6UGl4ZWxZRGltZW5zaW9uPSI0MTkiCiAgIHRpZmY6SW1hZ2VXaWR0aD0iMTYyMSIKICAgdGlmZjpJbWFnZUxlbmd0aD0iNDE5IgogICB0aWZmOk9yaWVudGF0aW9uPSIxIi8+CiA8L3JkZjpSREY+CjwveDp4bXBtZXRhPgogICAgICAgICAgICAgICAgICAgICAgICAgICAgICAgICAgICAgICAgICAgICAgICAgICAgICAgICAgICAgICAgICAgICAgICAgICAgICAgICAgICAgICAgICAgICAgICAgICAgCiAgICAgICAgICAgICAgICAgICAgICAgICAgICAgICAgICAgICAgICAgICAgICAgICAgICAgICAgICAgICAgICAgICAgICAgICAgICAgICAgICAgICAgICAgICAgICAgICAgICAKICAgICAgICAgICAgICAgICAgICAgICAgICAgICAgICAgICAgICAgICAgICAgICAgICAgICAgICAgICAgICAgICAgICAgICAgICAgICAgICAgICAgICAgICAgICAgICAgICAgIAogICAgICAgICAgICAgICAgICAgICAgICAgICAgICAgICAgICAgICAgICAgICAgICAgICAgICAgICAgICAgICAgICAgICAgICAgICAgICAgICAgICAgICAgICAgICAgICAgICAgCiAgICAgICAgICAgICAgICAgICAgICAgICAgICAgICAgICAgICAgICAgICAgICAgICAgICAgICAgICAgICAgICAgICAgICAgICAgICAgICAgICAgICAgICAgICAgICAgICAgICAKICAgICAgICAgICAgICAgICAgICAgICAgICAgICAgICAgICAgICAgICAgICAgICAgICAgICAgICAgICAgICAgICAgICAgICAgICAgICAgICAgICAgICAgICAgICAgICAgICAgIAogICAgICAgICAgICAgICAgICAgICAgICAgICAgICAgICAgICAgICAgICAgICAgICAgICAgICAgICAgICAgICAgICAgICAgICAgICAgICAgICAgICAgICAgICAgICAgICAgICAgCiAgICAgICAgICAgICAgICAgICAgICAgICAgICAgICAgICAgICAgICAgICAgICAgICAgICAgICAgICAgICAgICAgICAgICAgICAgICAgICAgICAgICAgICAgICAgICAgICAgICAKICAgICAgICAgICAgICAgICAgICAgICAgICAgICAgICAgICAgICAgICAgICAgICAgICAgICAgICAgICAgICAgICAgICAgICAgICAgICAgICAgICAgICAgICAgICAgICAgICAgIAogICAgICAgICAgICAgICAgICAgICAgICAgICAgICAgICAgICAgICAgICAgICAgICAgICAgICAgICAgICAgICAgICAgICAgICAgICAgICAgICAgICAgICAgICAgICAgICAgICAgCiAgICAgICAgICAgICAgICAgICAgICAgICAgICAgICAgICAgICAgICAgICAgICAgICAgICAgICAgICAgICAgICAgICAgICAgICAgICAgICAgICAgICAgICAgICAgICAgICAgICAKICAgICAgICAgICAgICAgICAgICAgICAgICAgICAgICAgICAgICAgICAgICAgICAgICAgICAgICAgICAgICAgICAgICAgICAgICAgICAgICAgICAgICAgICAgICAgICAgICAgIAogICAgICAgICAgICAgICAgICAgICAgICAgICAgICAgICAgICAgICAgICAgICAgICAgICAgICAgICAgICAgICAgICAgICAgICAgICAgICAgICAgICAgICAgICAgICAgICAgICAgCiAgICAgICAgICAgICAgICAgICAgICAgICAgICAgICAgICAgICAgICAgICAgICAgICAgICAgICAgICAgICAgICAgICAgICAgICAgICAgICAgICAgICAgICAgICAgICAgICAgICAKICAgICAgICAgICAgICAgICAgICAgICAgICAgICAgICAgICAgICAgICAgICAgICAgICAgICAgICAgICAgICAgICAgICAgICAgICAgICAgICAgICAgICAgICAgICAgICAgICAgIAogICAgICAgICAgICAgICAgICAgICAgICAgICAgICAgICAgICAgICAgICAgICAgICAgICAgICAgICAgICAgICAgICAgICAgICAgICAgICAgICAgICAgICAgICAgICAgICAgICAgCiAgICAgICAgICAgICAgICAgICAgICAgICAgICAgICAgICAgICAgICAgICAgICAgICAgICAgICAgICAgICAgICAgICAgICAgICAgICAgICAgICAgICAgICAgICAgICAgICAgICAKICAgICAgICAgICAgICAgICAgICAgICAgICAgICAgICAgICAgICAgICAgICAgICAgICAgICAgICAgICAgICAgICAgICAgICAgICAgICAgICAgICAgICAgICAgICAgICAgICAgIAogICAgICAgICAgICAgICAgICAgICAgICAgICAgICAgICAgICAgICAgICAgICAgICAgICAgICAgICAgICAgICAgICAgICAgICAgICAgICAgICAgICAgICAgICAgICAgICAgICAgCiAgICAgICAgICAgICAgICAgICAgICAgICAgICAgICAgICAgICAgICAgICAgICAgICAgICAgICAgICAgICAgICAgICAgICAgICAgICAgICAgICAgICAgICAgICAgICAgICAgICAKICAgICAgICAgICAgICAgICAgICAgICAgICAgCjw/eHBhY2tldCBlbmQ9InciPz5Ucb9NAAAAA3NCSVQICAjb4U/gAAAgAElEQVR42uzdZ1gTWeM28AmEBJBelCoiKqhg712xYu+KvSP23t21Yu8de8GCBWw0RRFQioUmgvTee02A5P3g/9pn310XMhNIZsL9u/bTOiecc+ZMZubOzDmsnIIoAgAAAAAAAAAAQEbJoQsAAAAAAAAAAECGIf8CAAAAAAAAAABZhvwLAAAAAAAAAABkGfIvAAAAAAAAAACQZci/AAAAAAAAAABAliH/AgAAAAAAAAAAWYb8CwAAAAAAAAAAZBnyLwAAAAAAAAAAkGXIvwAAAAAAAAAAQJYh/wIAAAAAAAAAAFmG/AsAAAAAAAAAAGQZ8i8AAAAAAAAAAJBlyL8AAAAAAAAAAECWIf8CAAAAAAAAAABZhvwLAAAAAAAAAABkGfIvAAAAAAAAAACQZci/AAAAAAAAAABAliH/AgAAAAAAAAAAWYb8CwAAAAAAAAAAZBnyLwAAAAAAAAAAkGXIvwAAAAAAAAAAQJYh/wIAAAAAAAAAAFmG/AsAAAAAAAAAAGQZ8i8AAAAAAAAAAJBlyL8AAAAAAAAAAECWsdEFQDf5KamJ30KTQyMyo2MyomNK8/LE/EBNY0MD8zYGFm2ad+pg0rlDE01NdDIAAAAAAABA48HKKYhCL4DUFWdlRX34FP3BPy4wuCQ3t0H/lq5pi9Z9e5r369u6Tw+uigo6HwAAAAAAAEC2If8CacqKTwh77Rnu7pkWGS2F0c9mt+7ZvaPNcMvh1iraWtgdAAAAAAAAADIJ+RdIQVlBwZdnL4MeP8uI+kmLw0BOrk3f3j2mTbAcas3mcrCDAAAAAAAAAGQJ8i+QqMSvIb437oV5vRHwq2hYPWUN9e6TxvebZ6tlbISdBQAAAAAAACAbkH+BJAgFglA3D5+rt5JDIxhwVMjJWQ63Hrxkvknnjth3AAAAAAAAAEyH/AsallAg+O7t437iLE1edSTFpEsnm41rWvXqjv0IAAAAAAAAwFzIv6ABRX3we3HgaGZMHKNb0c560NitG5qamWKHAgAAAAAAADAR8i9oEFmx8a77j0R/8JOR44TN7ms7bcRae2UNDexcAAAAAAAAAIbd1yP/gvpVU1Xlc+2226lz9JzhXhxKampjtqzrOWMKi8XCjgYAAAAAAABgCuRfUJ/igr44b92Vk5gsw2007993yoHdWkaG2N0AAAAAAAAAjID8C+pHTXW117nLb85dFgoEMt9YbpMm47Zv7DVzKvY7AAAAAAAAAP0h/4J6kB2XcHfNxrTI6EbV6k6jR009sFtRTRUDAAAAAAAAAIDOkH+BuMLcPe9v3MkvL2/oP6Sird3UrIW2sRFXpQlHSUlJTY2jpMRRUqoR1PDLyqsqKytLSytLSytLSnMSEnMSk3klpQ1dJd0WzeddPK1v3hrDAAAAAAAAAIC2kH8BdYKamldHTr53vNkgQ1NOzqBtm1Y9exh1tGzawkSnhYmiqgqpTyjJzcuOT8yJT0z8+i02MLggJa0h6slRVJp6eE+XsTYYDwAAAAAAAAD0hPwLKOKVl99dszny7fv6/dimLU3bDurfsld3s+5dldTV6vGTC9MzYgOC4gKCI999KM3Lr99qD19tP3zNcqwLCQAAAAAAAEBDyL+AiqLs7GuLV6RF/KivD1TWULcaOazbxHEtu3dp6MoLampiA4I+P3ke7vGGX1FRXx/bwWaE7fGDClwuhgcAAAAAAAAArSD/AtLyklMvzFpQmJZRHwOQZTViaO+ZU1r36SUnLy/hhlSWlUV4vPG95ZQa/r1ePtC8f9/5l05xlJQwSAAAAAAAAADoA/kXkJMVn3B51uKirCxxRx6b3WXMKGv7Jc1atZR6o+KDv767fC3S20f8jzLt3nnx1YtkpyoDAAAAAAAAgIaD/AtIyIiOuTR7kZiTZ7E53N6zpg1aPE9DX49WrUsJC39z3jHCy1vMzzHuYLns1pX6nbwMAAAAAAAAAChD/gWiyo5LOD9jfmlenjgf0m7IwAm7t2k3N6JtM2MDgp/9sT8zJk6cDzFsZ25395qyhgaGDQAAAAAAAIDUIf8CkYgffmkaG07cva299SD6N7amutr/9n33k+d4ZWWUPwQRGAAAAAAAAABNIP+CumVEx1yYtbA8v4DiIJOTs16+eOjKZcxaG7E4K+vJHwcjPN9S/gQjq/Z2tx3xIiQAAAAAAACAdCH/gjqI+eSXira27UkH8359GNr8z09cnXfsrebzqBXHU2AAAAAAAAAAUof8C2ojZvjVuk8v25MOarq6jO6E1Igft1evz0tMoVYcERgAAAAAAACAdCH/gv8kzmuPLDk5m81rBy9ZwGKxZKAreKWlj7btCXnlRq04XoQEAAAAAAAAkCLkX/B74jz5JcdRmH3yUMdRI2SpQ4RCocfpC15nLlIrjqfAAAAAAAAAAKQF+Rf8hjjhF1dVddGVs2Y9u8lkz/jevOey7xAhFFIoiwgMAAAAAAAAQCqQf8E/iRN+qWhrL7152bC9hQz3T5i75901W2uq+BTKIgIDAAAAAAAAkDw5dAH8XUZ0zNnpc6mFX1pGBquf3pPt8IsgiA4jhy90PMPmcCmUTYuMvjxvWUVRMUYaAAAAAAAAgMQg/4L/yY5LuDR7MbUJ7zUN9O3uXdc2NmoMHWUxoN/SW5c5ikoUyqaGf784a0F5YSHGGwAAAAAAAIBkIP+C/yPOa4+aBvrL799oJOHXL2Y9uy2+cZFaBJYWGX1p9iJEYAAAAAAAAACSgfwLCALhFyWIwAAAAAAAAAAYAfkXIPyiDhEYAAAAAAAAAP0h/2rsEH6JCREYAAAAAAAAAM0h/2rUEH7VC0RgAAAAAAAAAHSG/KvxQvhVjxCBAQAAAAAAANAW8q9GCuFXvUMEBgAAAAAAAEBPyL8aI4RfDQQRGAAAAAAAAAANIf9qdBB+NShEYAAAAAAAAAB0g/yrcUH4JQGIwAAAAAAAAABoBflXI4LwS2IQgQEAAAAAAADQB/KvxgLhl4QhAgMAAAAAAACgCeRfjQLCL6lABAYAAAAAAABAB8i/ZB/CLylCBAYAAAAAAAAgdci/ZBzCL6lDBAYAAAAAAAAgXci/ZBnCL5pABAYAAAAAAAAgRci/ZBbCL1pBBAYAAAAAAAAgLci/ZBPCLxpCBAYAAAAAAAAgFci/ZBDCL9pCBAYAAAAAAAAgeci/ZA3CL5r7vwhMCREYAAAAAAAAgIQg/5IpCL8Ywaxnt8XXEYEBAAAAAAAASAjyL9mB8ItBEIEBAAAAAAAASAzyLxmB8ItxEIEBAAAAAAAASAbyL1mA8IuhEIEBAAAAAAAASADyL8ZD+MVoiMAAAAAAAAAAGhryL2ZD+CUDEIEBAAAAAAAANCjkXwyG8EtmIAIDAAAAAAAAaDjIv5gK4ZeMQQQGAAAAAAAA0ECQfzESwi+ZhAgMAAAAAAAAoCEg/2IehF8yDBEYAAAAAAAAQL1D/sUwCL9kHiIwAAAAAAAAgPqF/ItJEH41EojAAAAAAAAAAOoR8i/GQPjVqCACAwAAAAAAAKgvyL+YAeFXI4QIDAAAAAAAAKBeIP9iAIRfjRYiMAAAAAAAAADxIf+iO4RfjRwiMAAAAAAAAAAxIf+iNYRfQCACAwAAAAAAABAP8i/6QvgFf0EEBgAAAAAAAEAZ8i+aQvgF/4AIDAAAAAAAAIAa5F90hPALfgsRGAAAAAAAAAAFyL9oB+EX1AIRGAAAAAAAAABZyL/oBeEX1AkRGAAAAAAAAAAprJyCKPQCTWREx1yavag0L59CWS0jA/v7NzUNDejfzB/vfYsyMmlbPSMrSyPLtvTvxhj/gKuLVlTzeZTa2N7utqOSuhoOOgAAAAAAAGgMkH/RRSN58is3KeXwiHECfhVta6jV3GiLx3M2l0P/zowL/Hx14XJ+RQWFsobtzO3uXlPW0MChBwAAAAAAADIP7z/SQuN57dF13yE6h18EQeQnp364dZcRnYkXIQEAAAAAAABEgfxL+hpP+BXjHxDp7UP/enqduVSUnc2ILkUEBgAAAAAAAFAn5F9S1njCr5rqape9DoyoKr+83P34WaYMIURgAAAAAAAAALVD/iVNjWq1R//b9zNj4phS26DHLilh4UypLSIwAAAAAAAAgFog/5KaRhV+lRcWep27xKTdIxQ++9NBKBQypb6IwAAAAAAAAAD+C/Iv6WhU4RdBEG4nzpYXFjFrHyWFhH176cagCiMCAwAAAAAAAPgt5F9S0NjCr8yYuID7j5m4p14ePM4rL2dQhRGBAQAAAAAAAPwb8i9Ja2zhF0EQLvsOC2pqmLizirKy3l25waw6IwIDAAAAAAAA+AfkXxLVCMOvcPc3MX4fmbvL3l26np+axqw6IwIDAAAAAAAA+DvkX5LTCMOvaj7/xZHjjN5r1Xzeq8OnGFdtRGAAAAAAAAAAf0H+JSGNMPwiCMLn6q28xBSm77uQV25xgZ8ZV21EYAAAAAAAAAC/IP+ShMYZfhXn5r69eFU29qDrPgehQMC4aiMCAwAAAAAAACAIgpVTEIVeaFAZ0TGXZi8qzcunUFbLyMD+/k1NQwMmNvzBph3BT1xF315FW1tdv6nEqpcTm8ivrBB9+2mH9/acOomJOyLGP+Dq4pXVvEoKZY2s2tvddlRSV8OBDAAAAAAAAMyF/KthNc4nvwiCSImIPDV+OiEUijwSWWueOjXvaCWxGvpcu/38wBHRt1fR1tr29pWimioTd0dc4OerC5fzKyoolDVsZ25395qyhgYOZwAAAAAAAGAovP/YgBpt+CUUCl33OpAIvwiix+Txkgy/CILoN89Wr7WZ6NuX5uV7XbjC0KGIFyEBAAAAAACgMUP+1VAabfhFEMRXlxcJn7+Jvj1HWXnkxtUSrqQ8mz1+91ZSRXxv3MlOSGToTkEEBgAAAAAAAI0W8q8G0ZjDL35l5evjZ0gVGbpqmXrTppKvapu+vdsNGSj69jVV1S8OHmPusEQEBgAAAAAAAI0T8q/615jDL4IgvC84FqZnkmiyseHA+XOkVdvxu7bKcRRE3z7y7fsoH1/m7h1EYAAAAAAAANAIIf+qZ408/CpMz3jneItUkQk7trC5HGlVWMfEuP8cW1JFXPcdqamqYu4+QgQGAAAAAAAAjQ3yr/rUyMMvgiCeHzhazasUfftWvXtYDh8i3TqPWLNcRVubxF6OT/h47xGjd5NZz26Lb1xCBAYAAAAAAACNBPKveoPwK+Hz11A3T9G3Z8nJTdi1VerV5qqojNywilQRj1PnS/MLGL2zzHp0RQQGAAAAAAAAjQTyr/qB8EsoEDzb60CqSJ/Z0/Ut2tCh8r2mTTKyaif69hXFxZ6nzzN90CICAwAAAAAAgEYC+Vc9QPhFEETgwydpET9E315JTW34anuaVJ4lJzdh9zZSRT7ee5QR9ZPpew0RGAAAAAAAADQGyL/EhfCLIIjKklK3E+dIFRm5bqWKliZ9mmDatXMHmxGiby8UCFz2HZKBAYwIDAAAAAAAAGQe8i+xIPz6xfP0BVKd0MysZW/bqXRrxfjtG9lcRdG3j/0UFO7xVgZ2HyIwAAAAAAAAkG3Iv6hD+PVLTmKy7937pIqM27VZXkGBbg3RMNAfvHQ+qSKuB49U8XgysBMRgQEAAAAAAIAMQ/5FEcKvv7jsOyTgV4m+ffuhgy0G9KNnW4YsX6xpoC/69gUpab437srGfkQEBgAAAAAAALIK+RcVCL/+8tP/U9S7D6JvL6/AHrNtA22bw1FUHLVpDakiXucuF2Vny8beRAQGAAAAAAAAMgn5F2kIv/5SU139bI8DqSIDFs5tatqCzo3qMm60affOom/PLy93O3ZGZoY3IjAAAAAAAACQPci/yEH49Xd+t5yyY+NF315FW3vo8iU0bxSLxRq/axvBYoleJPiJa3JouMzsVkRgAAAAAAAAIGOQf5GA8OvvygsL35y/TKrI6E1rFdVU6d80Y8t23SePJ1FAKHTZ4yAUCmVm5yICAwAAAAAAAFmC/EtUCL/+4fXR0+WFRaJvb9jOvPuU8Uxpnc3mtVxVFdG3TwoJ+/r8lSztX0RgAAAAAAAAIDOQf4kE4dc/ZP6MDXz0lFSR8bu3s+QYM97UdHTIvqr50uEEr7xclvYyIjAAAAAAAACQDci/6obw699c9x0W1NSIvn3ncTZmPboyq40DFs7RbmEs+vbF2dnvLl+XsR2NCAwAAAAAAABkACunIAq9UAuEX/8W5u55y3696NuzOdwtb55rGRkyrqXhHm9vLl9DrqVerloyt8fjgr5cXWDHr6igUNawnbnd3WvKGhr4MgEAgH9LDg3PT0sXfXs5llyHUcPQbwAAAEAW8q/aIPz6t2oe/8jI8XlJKaIXGb5mxYg1yxna3ivzlkX7+ou+fQebEfPOHZe9YwERGAAANASnDdu/PHsu+vbyCpwj0V/RbwAAAEAW3n/8Twi/fuud4w1S4Zd6s2aDlsxjbnvH7dzMYrNF3z7stUdsQLDs7Xe8CAkAAAAAAADMhfzr9xB+/VZxTg7ZKa7G7tjAVVZmbpP1Wpv1sZ1KqojLvkOkJkdjCkRgAAAAAAAAwFDIv34D4dd/eelwgldWJvr2LTp37DR6FNNbPXLdyiaaJN7dy/gRHej8TCYHACIwAAAAAAAAYCLkX/+E8Ou/pIZ//+L6kkQBFmvCH9tYLBbTG66srj58tT2pIu7Hz1QUFcvkMEAEBgAAAAAAAIzDRhf8XUZ0zKXZi0rz8imU1TIysL9/U9PQQCZ7RigUPtm9nxAKRS/SY8oE4w6WstH83rOm+d97kB0bL+L2pXn5d1ZvMmhnLqtHiqGlRULwNwoF0yKjL89bZnfbUUldDV84AAAAAAAAIBnIv/4nOy7h0uzF1MIvTQN9u3vXZTX8Igjiy9PnyaHhom/PUVYeuWGVzDRfns2e+Of2y7MXi14k2tef1MKRjUdq+PeLsxZgRUgAAAAAAACQGORf/wevPdaCX1Hx+vhZUkWGr1mu3rSpLHVCmz692g8d/P3NOxws4vv1IiTTIzDvK9cJgZAONVHgchUUuYpqKmwFLqeJErdJEzVdHQ19PZYc3nAHAGjU/O7c55eVy1qr5FhDli7EzgUAALKQfxEEwq+6vL1wpSgzU/TttZob9Z87S/b6YfzOLT8++An4VThkxCcDEdjrY2eE1dX0vTvgKOgYGemYmmg3N9Y1NWneob1BWwt5BQWMPQCAxsP74jVSl3CMICcvj/wLAAAoQP6FOb/qIBQKAx+5kCrSbeJ4Npcje12h3dyoVfduP/0/4aipF5gLrEEJ+FXZ8QnZ8Qn/+7rncJt3srQY2N9iQD/D9hboIgAAAACaCHJ2IfU0hpquTrfJ49FvAKQ09vwLc37VicViWdstctl3SPQiH+/eH7hgtqKaqox1RWr4958fA/CtUb9dirnAJKaaz4sP+hIf9OX10VPaJsZdxo3uOmGsrqkJegYAAABAuvxu3UmLjBZ9eyOr9si/AMhq1LPD4LVHEfWZM0OvtZno25fm5XueuyRjnSAUCl32HSK1AiaI4teLkOWFhegKScpLSvE6e+mQ9egr85ZF+fgKMbABAAAAAECmNd78C+GX6OTZ7Am7t5Eq4nfrXtbfXrySAV+ePU/4/A1fGQ0BEZgURfv6Oy5YfmrC9Mh3H9AbAAAAAAAgqxrp+4+Y84us1n17tbMeFPn2vYjb11RVvzx4bNHV87LRfF55+asjp0kV6TFtkklHq8Z2ZFWUlrofP1fN55EtiLnApCs1PPLaInuzXj0m/rFN37w1OgQAAAAAAGRMY8y/MOcXNeN3bony9Rd99cNIb58oH1+Lgf1loO3eFx2Ls7NF316rudHkPTtlchGAOjXvYHV1wXJ+ZQXZgpgLTOriAoKOj506dPniYSuXYaVIAAAAAACQJY3u/Ue89kiZjonxgHmzSBVx3XekpqqK6Q0vTM94f/UOqSLjd25pnOEXQRBmPbstvnGRo6hEoSxehJQ6YXW119lLpyfNzElMRm8AAAAAAIDMaFz5F8IvMQ1fZaeqo0Oiw+MT/O88YHqrXfYfqeZVir59qz49LYcObszjBBEY06V9jzo5fnqktw+6AgAAAAAAZEMjyr8QfomPq6Iycv0qUkU8z1wszS9gbpPjg7+Gu3uROKLk5Sfs3IJvFkRgTMcrKbm+dNUnp0foCgAAAAAAkAGNJf9C+FVfek6baGTVXvTtK4qL3U+eZWhjhQKByz4HUkX6zJ6ub9EG44RABMZ8QoHg8c697xxvoisAAAAAAIDpGkX+lR2XcH7GPGrhl5aRwYqHtxB+/YUlJzdux2ZSRQLuP07/Ec3ExgY+fJIW8UP07ZU11Eessccg+YtZz24LHM+wOVwKZdMiox0X2PFKS9GN0vXS4RieAgMAAAAAAKaT/fyrIC39yrylWO2xHpn16Npp9EjRtxcKBC77DjOumZUlpW4nzpEqMmLdSqxd+A9t+vZeeusytafAkkMjrsxbxisvRzdK1+Nd+36890U/AAAAAAAAc7Flu3lFmVnnZswrTM+gUFbLyMD+/k2EX781Zuv6CK931XyeiNvHBQSFuXl1GDWMQW10P3We1DODeq3Nes+cirHxb7+eAru2aKXoA+Yvid9Cby1ft+jqOXkFBab3QzvrQSNWL6/fzxQKhRUlJQRBlBcVl2TnlublZickZ8fF5cQn1lRV1+Ofubduy/rnj7TwJCwAgEwzH9Bv6c1L6AcAAJBJspx/VZaVOS6yL0yjEn7hya86+sfQYLDdQq8zF0Uv8sLhaNshAxS4XEY0MDsuwe/OfVJFxu3cLM9mY2z81q+nwK4uWM6vrCBbNtrX33nHnhlH9jO9E1Q0NUjNnSeOKh4v6VtY7KfAcM83mdGx4n9gRVHx/U077J1usOTkMJ4BAAAAAIBxZPZORlBTc2/tlgxK005hwntRDLFbpGmgL/r2+anpH67dZkrrXPYdFlaTeHzGcri1ef++GBW1EGc6/ODHLm/OX0Efik6By23Vq/vIdSs3ublscnfpO3cmm6so5mfGB33xv/MAfQsAAAAAAEwks/nX84NHI9++p1AQE96LiKOoaLN5Lakib85fKc7Kon/TIt99iP7gR+Io4iiM3bYRQ6JO4kyH73b8TJibF/qQAr02rSb9uWOXv1f/BbPl5OXF+Sj3k+dK8wvQpQAAAAAAwDiymX99ffHa98ZdCgXx2iMpncfamHbvLPr2/IqKV0dP07xRNVVVz/eTm61/0MK5OibGGA+iEGc6/Psbt2fGxKEPqVHR0pywa+v6F856Fq0pf0hFcfGb85fRmQAAAAAAwDgymH9l/ox13vIHhYJ48ossFos1fscWgsUSvcjnp8+TQ8Pp3Ci/O/dzEpJE315FW3uo/RIMBtFRfgqMX1Fx235dZVkZ+pAyfYs2a57e7zpxHOVP+OT0uCQ3Dz0JAAAAAADMImv5VzWPf2ftJgpzbOPJL2qMO1j2mDyeVJFnfx4UCoX0bE5pXr7H6YukiozevI6rooKRQArlp8Cy4uJd9x5CB4qDo6g489iB/gvmUP2OrfS/i1nAAAAAAACAYWQt/3px+HhmVAzZUpjwXhw2m9dxVUkEQMmh4V9dXtCzLa+Pn+GVlIi+vWF7i+6Tx2EMUEB5Ovwg52chr9zQgeJgsVgTdm3pOX0yteJBD58KamrQjQAAAAAAwCAylX9F+330u3mPbCm1pk3tEX6JQVVH25rkC4AvD5/ilZfTrSFpkdFBj56SKjLxzx0sOTmMAWrMenabd/EEi80mW/DJrv1F2dnoQDFN3ruT1Px9fynKyooNCEIHAgAAAAAAg8jOrTu/osJ5xx6ypbiqKouvX9RC+CWegQvm6LZoLvr2xdnZ3hev0q0VLnsPCgUC0bfvPH60adfO2PvisBjY3/bYAVJTyBEEUV5Y9OxPB/SemOQVFGyPOXCUqKxFEOaOtTgBAAAAAIBJZCf/en3sTEFKGqkibA53keN5w3bmGAdiYnM4Y7ZuJFXk3ZWbeSmp9GlCyGuP+KAvpAbP6I1rsOvF12Xc6Al/bCdbKtzdK8LTG70nJi1jo6ErllIoGO37Eb0HAAAAAAAMwpaNZqRERPrdIvfmo5y8/Jxzx8x6dGVQMwU1NZWlpVL50xwlJTaHU8sGlsOHtOnb+6f/JxE/sKaK/8Lh+PwLJ+nQsfzKyhcOx0gVGbJ8cZ2rJfArKqr5fMk3h0WwlNTVGDSw+8+dWZiW9t7xJqlST/882LpfL66yMr7HxdF3nu37qzfLC4tIlcpPTi0vLFTW0EAHgogqior5FRUKSopybLZikyboEKAtXnk5v7xCWFPNVlSUY8kpqqmiTwAAoHESCoUVxcUEQVTxeOpNm8pAi2Qk/3Ld50DqzTWCIMZt32Q5dDCzmvnuyo3XR09J5U93Gj1qztmjtW8zfteW46Mniz4xdri7V2xAcKte3aXesT6ONwvTMkTfXtNAf/CyBbVvU83nHxs9KS8xRSotsr9/06xnNwaN7TFbN+Qlp4Z7vBG9SFFm5rvL10euW4kzkzgUmzTpNXMqhfeRUyIizfv1YVBL+RUVOfFJuclJuQnJhZmZJTn5pfm5ZXmFVVV8YU0Nr7ScIAiOkpIch81mK6joaKpoaavqamvo6+uaNtcxMdFt2UKBy8WAqV1NVVV2XEJmbGxWTHxmTFxWbFxFYTGvvJz/rwkf2Ryusoa6ppGBlpGBpqGBrolJ805WzVq1xIyK/3e5KRAUpKXnJCblxCflJieX5heU5OSW5uTyKitZQmFFcSlBEBxlZTkFeQ6Hy1biqmrrqOpoqes1VdHW0TVt3tSspZaRIbqxtnM0j58VG5+dEJ8Vm5AVG58Tn1BeUMSvqPh1lf93LDZbRVNTRUdLp3lzbRMjvVZmxh0sm5qZysnLoxvht0MrOz4hOyExOzahMCOjJDevJCe3tKCAIAheSalQIGRzOGwlLputoKKt2URLS62pjpaxka6JSdWw8PsAACAASURBVFMzU50WzTGu/ksVj5eXlJKbmJyTlJSbmFyQms6vrOBXVPBLy6r4fF5pubyCgoKyIputwFVRVtHRUdPRVtdrpq6vZ2DeulmbVvjdRQaOrJzEpNyEpJzk5ML0jJLc/NLc3LK8Aj6fJxQIeCVlBEEoKCrKcxXY8vLKWlqq2loqOtoa+no6LYx1WrTQNTXBGBClk9OjolPCv2fHxecmphSkppUVFpbmFxBCIUEQyhrq+776y0AzZSH/CnXzSAj+RqpIuyED+82fxaxmFufmvr3gKK2/HvLKrc/s6bVHKnptWvWeNc3/9n3RP9Zlr8P6F87SPdkXZWZ5X7xGLqzZtp6jqFj7Nj7Xbksr/CIIwnWfw1rXRwy6imKxWNMP7U37Hpmfmi56qXeXb/ScNqnOB/Ggdl3Hj6GQf6WGfad//pWTmBz7MSA5JCw5NDwrLqHOn0n+uvXNSUj8xz/Jycvrm7dq3rlji04dW/fvTf9fwGqqquKCPpMqomloSGomx78UZmT+8PGLeu/70+8TX7S1Tar5vOLs7OLs7KSvIX/9T46ysnEHy5Y9uloOHWJk2bYR3t3FB31OCP6a9C0sKSycV1Iq4nD9LW6TJs1atWze0cqsZ3ezXt2aaGriu44giMyYuGhf/2gf/7jAz9V8nihFhNXVJTk5JTk5GT+i/zdWlZRMu3c1H9Cn7cD+Tc1M0bGNXGVZWYxfQELwl4Qv39Iif9RUVYt0hvrXiYajrGxk1b5F147mffuYdussr6Ag7kkwIakgPZ1UEWPL9vR5h6CypDQ++EtcYHBsQHDa9x91P+uQ959XmVrGhiadO7bp07tNv14a+noSbkhKWESFCOvLV5aRWxyMV1oq+ps3dYcCHG7L7l1odWQVpmf89A9MDglNDgtPj44VVleLelpMTP7nEJCTa2Zm2ryjlUmXzm369mTE3N+xHwMFQhLP96jq6Oibt6bwh9K+R0W+84n29U8OCRPx64vRWDkFUYxuQE1V1aFhY/OTScwkpWmgv/7VY2V1dWa19MGmHcFPXKVYAcN25uueO9f+43x5YeHBwTYVRcWif+yU/bt7206TYrvurd/61eWl6Nubdu+84sFtVq1Tthfn5h4aPJpXVibFdk09uKfXjMnMGuRJIWFnp82t8/T2/2U3E8fZHj8oldpubNOJVFV7TJkw/ch+evb8oSE2Of+6Vqhd53E2s08doWFbBDU1sQFBYe5eUR/8yU4KKTp9izZtB/XvPNbGoC1NZ5AsLyra1bkvqSKDly0cs2U9qTuT4Mcugc5PM6J+1nv9tYwM2g+z7jpxrLFlO9m+DisvKgp77fn97fuf/oHVvMqGudZj6Zm3srQe1Gn0KH2LNnTrAacN2788ey769vIKnCPRX0n9ibzk1I/3Hnx74V6UmVnv9dezaN3JZmTPqRPUmjWj4QDb22coqVabD+i39OYlAkQ7eENeukd4escEBgn4VfX74Rxl5bYD+3WZMMZiYL/aZyCpxfODR32u3iJVZMXD21IPQSpLSkPcPD8/eZb4JZTs+z2iaNqqZZdxo7uOHy2xEOTc9LkJwV9pPp41DfR3+kl/dSOhUJj4NST0tWe0j192fEID/RVdUxOLQQM6jR7Roksn2u6RLW27kboq6DJhzKwTh0TfviQ3L/Dhky/PXojYz3j+iy6CH7uQCr/k5OVnnT7CuPArJSIy+Olz6dYhLTI68LFLr2mTaj0wNEauXflsD4k84tXRUx1thktrIqGkb6Gkwi+CxRq/YwurrvUKXx8+Kd3wiyAIt+OnO9kMZ9bEJSadOozetOalw3HRi3x1fTnUfgl+fheTafeuZPOv8oIiurUiMyYu4IFzyAv3ktzchv5bGVE/M6J+el+6ptfarMukcb2mTWpUz9dkxsT533H6/PSFiE97UZCfmu57447vjTum3Tr3mz/bari1PJstS30oFAh+vPcNcnb5/u59vd85//t+IjMqJjMq5s15x6YtTTuNtek1c7JszOJRZydHvvvgf+dBtK//r9c3GuRwiIpxj4rxPH2h/dDBAxbOpdsDFNAQYvwDAh48Dvf0rqlqqGle+eXloW6eoW6eTTQ1uk+Z0H/eLA0DfZnv2NhPQUHOz0LdvBrqxwCCIAgiOzbe/cRZ9xNnTbt3GbhgruXwIXj1ng7yUlKDHj357PKS1KQ01OQkJOUk3PG9cUeruVHX8WN6z5yqrtesEXV1cuqbc5c+P3/V4JcftMTsq8lqPv/N+Sukioxct9K0a2eGXcAJha57HRru0o1EpHL0VKeRw2qPVHrPmuZ/70F2bLyIn1lRVOx59vKEXVukcmX8bI8DqSI9pk407mBZ+zZ0CCsJgijNy/c8d2nc9k3MGu2DFs+P8QuI9vUXfSd6nrs0++RhXDeIo3lHqyDnZ6SKlBfRJf8SCgTf3773u+UU8zFA8n89Mybu9eGTnicvdJ04ZuCiec1atZTtoZIRHfP62OnIt+8l9hcTPn9L+PxNw0Bv1LpVXSeOlYG7FH5Fxeenzz9cv52TkCT5v54dn+B5+vzbC5c7jR7Vf+EcWX28TigQfHV96XHmYl6ShCYiENTUhHu8Cfd407Jn95FrVzBrCk4QUU11dcgrdx/HG2mR0RL7o2UFhe8db364fqfj6BEj1qzQNTWRyb6NDQh2P3Em4fM3Sf7RhOCvCcFfm7Y0HWK3qOvEsZh8TVp+fgzwv+X0/e37hnjcr3b5yaleZy+9uXi148hhgxbPq/Muj+nKCwvdT50PuO/cGN5z/C/Mvo4Mfvq8IJ1EQty0VctBS+YzrpnfXF9K+HzwX0rz8r3OX659G3k2e+If20h9rN+d+1kN9oBrLT4/fZ4SFiH69lxVFZuNa+q45hYKXffRIqwkCMLv1r3sf80uQXMsFmvS3p3yCiQe9Q954ca4ZtKNjgnpWZ8qi4vpUPMIL+9jYybfWLZaKuHXX6r5vMCHT46MGH9v/dbcpBSZHCTlRUXOO/Ycs5kkyfDrL4Xpmfc37Tg5YXpsQDCDb56rqj7ee3hw4Kgnu/ZJJfz6W02qv7i8ODVu2pX5dhnRMTI2VuOCvhwbPclpw/Y8aRyM8YHBF2bOv2m/Lj8llQAZEu7+5uiI8U7rtkoy/PqLoKbm2/PXh0eMf7xrb0lunix1bHJo+KXZiy/aLpDWzU52fMKDzTtPjZ+W+Lf5KEEyYj8FnZky+/LsxRFe3pIPv/53+1ZdHfLS7dSEGdeWrEz/ES2rvf31+avDw8b7377fmMMvgtH5l1Ao/EDynfbJf+4Qfy5JCeNXVr46dpo+9fG9ebfOrKFN397tyaytKayudvlD0lM4VZaVvTpKrmOHrbRT1dGufZtvri/JrsbQoHc4Lw4eY9yhrWNiPGT5IhLjRyD4cP02riHEoUF+DYGKuibnlsAV8+mJM24sW50ZRZu7d6Hwq8vLQ8PGPvvzYGVxiSyNkHD3N4eHjgu47yzdcD8t4sdF2wUPNu3glZYyrg+/v31/dMT4J7v2SeD9XNFFf/A7Pnrywy27irOyZGCgVpaUPty888KMeZnRsdI+ZLwOD5/ge/u+kB6/h4E4UiN+nJ0866b9WunG1r8umD/de3R42NiAB09kYGhV8XjPDxw9PclWur9g/d/5JTL67JTZDzfvZOL5hYmyYuMvz1lycdbCJDrFjpFv3x8fM8Vpw/ZiOp2p6+XkeGf1pntrt5Tm5WHsMTj/iiI5K17n8aNb9enJuGZ6X3AsTM+kT31EjFTG79wixyERNf70/xT57oMkG/L2/JWSnBzRt9c2Me4/17b2begWVv76Ho/y8WXcsB9it0jT2FD07YMfPy/NL8AXOmWKKkxaE7q8sNB5x57Tk2yTQyNoWD1hdbXfbScH6zFfXV7IwNio4vEebf/zpv1a+lwzBT9xPTp6MoN+qC/MyLxht+b6kpVkZ9mT0IgVCIKcnx0aPiH4sQujx2rCl29HbSYG0aYV1bxKlz8PXJ63DKcn5uJXVDw/ePT0xBmJ30LpU6uKomLn7X9csF1YkJbO3L5NCYs4OWaqz7VbBJ2CvKDHLsfHTU2N+IHB33B45eUvD584ajOpHhevrNeTovDLs+eHrMf63r4vxUfS6lFWfMKJ8VNDXrph7P3C4Pm/fG/cFX1jbpMm47auZ1wbC9Mz3jneolutfkUqFgP717KNdnOjAfNnv79yQ/SPvbF8DVdRSWKtqCT58874nVvY3DpeyqNbWPmL674jrfv0YtaTjxxFxQm7tt5Yukr024zAh0+sly/GdzrFDlcmfeixFblSqWqUj+/9jTvp//tVaV7evfXbQt28pjrsUdFi6tT4RdnZN5etpmHOWJCSdn76PJvN6wbTfk6Dz09dn+w+0HALBdTbDUlJyYPNO8M83kw9+Ieari7jxmrAfeenfx6g4TsdMX4fT46ftvDSWcP2FjjXMEtKWMTt1RtJrbIlSfGBwUdtJk87uLvT6FGM61v/uw9c9jgIampoWLe8xJTTU2wn791V+5JfQE3St9C767bQ9rD6+znR5c8DYa/dbY87aJJ/SYI+4gI/37BbXVFUjLH3F6Y+/5Wfmhbt91H07Qcunk/Pdalr9/zA0QZdAIUy131HaqrqWDBi+MplKtraon+mgF9VUVwssf9IJfrm/fu2tx5U+zb0DCsJgsiOT/h49yHjBr/l0MEte3YXffvAR0/wmgllwmrS16AcJSUJV7Kax3+218FxwXIGPbwd4eV9bOREmv7CWZes+IQzdH3IjiAIQU3NS4djT//YT887KIIgeKWl99Zvvb9xB/3Dr79Evn1/3GZKwpdvDBqoQqHw+YGjzjv20HZCk8K0jHPT5sT4BxDAnEHlc/322amzaX6XzispubNq0wuHY7T9Gvxt37odP/N0934611nAr3Leutvr3GUcC/W56wUCzzOXzk2bS//w6y/xQV+O2kwOee3B0D6P8Q+4Mt8O4dc/MDX/CnrsIvrjshxFpX5zZzCujQmfv4a6edKzbtnxCR/vPap9G66Kis3mNbJwkMjLj92+sc7NXA8eo2dYSRCEx+kLTHz/Yqg9iee58pJS4gI/4zudGn4F6ftztaYSfUKkODf3ou0Cv5v3GNe3Jbm5V+Yt82HaFHXpP6IvTJ9Hwwda/8H/zoOby9fyKyroVrG85NTTE22/urxk3Igtzcu7MGth0KNnjKitUCB4tHW3z7VbNK8nv6LiyqLlEV7eON3QXxWPd3f15uf7jzBliuj3jjevLlrBY0LOLqipebRl15vzVxjRse4nzrrsO4Qjol5UlpReXbLS49Q5BmW1v/BKSu6s3PDqyEnGvQsZF/Tl6qIVtL05leatPRMrLRQIPpOZ36H3rGlNNDUZ10aaf+d6nDpfZ6TSY/IEIyvGr63eZ84MffPWtW+T8PlrGI1/HKgoLvY4dY5xPW/evy+p8RPk/IwASsoKisgWUZfgE7Vp36NOT6DX9Ctkv8+f7z/yYNOOOh+bpYm85NQr85aV5uUzorbf37y7uXwdrfo2LvDz6YkzsuLiGTpiBfyqh1t3vTpykv5VfbbXgSnf/AJ+1a1VG/AUGM2V5OZdnLkg5BXDJsqJ/uB3adai8sJCmtfTdf/hIEbNM+h7467nmUs4LsS/qDg92TZKshM91y/vS9euL13FY87T3NlxCTeWrarm8zD8/o2R+Vfi15CC9AxRW8hRGLR4LuPaGPjwSWp4JJ1rWFFc7Hn6fO3bsOTkJv6xndFHiJK62vBVdnXe3NL/B6JPTs5MXNCX1JRe4R5vqnj4oqciNymFbBFtYyPJ1C3hy7fztvPp/yBSnYKfuN60X0f/IVpeVHR5/pISRq18FP3B78GWXTR5A/r72/eX5i0pKyhk+oj1vnTNZd9hOr9X/vaCo//t+wzqUgG/6vqy1SkRkQTQUnFW1vnpc5NCwphY+eTQ8AuzFtH5RadPDx773XJiXMd6nDrH9LVBpCsrNv7s1DnZsfFMb0ikt8+VOUsY8S4hr7T0+pIVeO3xvzAy/yL1VmD3ieMYN/NXZUmp2wkGPK3z8d6jOiOVFl06dR5nw9wjxGbjmjofHgx49JTmYSVBEEKBwHX/Ycb1v9Xwoc3MWoq4Mb+8PNr3IwHk5SQkki1i2E4ScznHfgq6Mncpr0RGFiOPfPv+6sLlNHxZ73/35zU1d1dvzktMYVzffnV5+eLAUalXI8zN65b9WgG/SjZGrO+NOy57HOgZgUV6+7w+foZxXcovL79ltwYrQtJQYUbmuZnzcxKSmNuEjB/Rjgvs6PmISmxA8JPd+xnasc47/kRsTU1aZPSFmfNLcnJkozmJ30IvzlpQVkD3L/BH2/fQc71pmmDe+o9CoTDM7Y3o2/eZxbyZvzxPX2DEBM+/IpXl967XvtmYzevCPbyZ+PqxnkXrXjOm1L4Nr7TU/fhZRjQn9lNQuPsbq5FDGbQLWHJyPWdMeX7giOg3n5ZDB+ObnSwK011LYC2zpJCwa4tW8CvrMy2S4ygYt2traNlWy9hIy8hAQ09Pns1WUlcnCIJfUcEvL+eVl5cVFOSnpGfFxGXGxubEJtZvBWI/Bd2yX7/wyhl6LsnqfelatK8/5eKqOjp6bVppGRtqGRmqaGlylBTlOBw5lpxAKKgsKuaVV+SnpRWkpucmJGXFJ9T7mvc+12+bdO3YcdQIafVepLfPndUb63dykyaaGsadOui2MNE2aa5tbNhEU0OeraCkpkoQhEAg4JWUlJeUlGRlF2bn5MTGZ/yMyYj6Wb+TFvnddmqipTV8tR2tBmpRZpbT+m2Uh5AcR8HAvI1Oc2NNIwN1fX2OEpfbpMmvgVpVXlHF4xVnZeenpuenpqZFRtf78gUF6Rl3V29advsKS46pk/DKntK8/AuzFjRc9M+Sk9Mxaa5lZKikpspVVVFSU1VUUeGVlVUUl1QWl1aUlBRlZGTHJ4r/7ZEUEua0buv8i6doNboqy8qc1m8TVtfDVxNHScnAoo2hZVuDtm1VtDUVmzRRVFX5dRKvqamuLC4pzsktzsrOiolLj4pODomol/e/aqqqndZuWffSmaOoiINFdNkJiZfmLi6v17hfTl5e36K1kZWlTnNjTSN9TQMDtoKCopoai8Wq4vH45eWVpaWVJSW5yak5sfGZMbFZsQm8srJ6rEBaZPTVhcuX3b2m2KQJPbs95JVbyEs3DL9aMC//Sv/xsyhT1BdhmrY0NbJsy6wG5iQm+95lzPP8sZ+Cwj3eWo2wrmUbDQP9IcsWep65wLjBNm77Jjl5+dq38Th9kUGr0bk6HLUY3F+By2XQXugyfvTLQ8dFvCiMev9BKBDgpoLkhV1VQvBXUkU0jQ0bejXorPiEa4vs6yt70m5h3HHk8PZDBxtZtmNzOKIXFNTUpIRF/Hjv++O9b2pEZL1ENlE+vvc375x14hCLxaLX6TUyOjYgkGwprqqKpfVg84F9Tbt00hL5rdjKktKk0LDYj4Ghbp55SfV2z+m8fY9Jp44a+nqS772kkLBbKzbUT/jFYpn17N5h1LBWPbs3a21GapzwKysTv4b89P0Y6uZZX2tseZw6p2PavMtYujzKLWQJ72/eVVFM+s2O5h0tLUcOM+ve1ah9OzaXI+I3QFZsfOKXb+Eeb2MDAusrW4z5GOBz/c6gxfNwAqIDfkXFtcX29R5+KamptbMeZNK5g1H7tnrmrbnKynUevJnRMWnffyR9C/3+9n15YRG1vxvh5e1x+sLIdSvp08NeZy6Kfu/2W+rNmnWdPLbD8KFGlu1Ev8ar5vHjv3wNe+UR8tpDzHfBsuMTXh0+QXlSl0FLFnSbMLbOzTzPXibVURqG+sPsl9bXblJQrs91vYuysx3nLa2v8EvDQM9yuLXVMOvmnaxIrT8uFArTvkdFf/D74fMh6WtYvZyjk0MjbtmtXXTtPKnrSckoLyx89icWbagD8/KvKF8/0TfuNmkc4xrosu8Qs16dcD14xGJQv9ojlcF2C4OePCtMy2BQu6xGDDPv16f2bXISk33vMGkug4KUtA/X75CaVEvqVHW0zXr3jPET6cXGsoLCtO8/jKza48tddNG+H8neSVoM6NugVSorKLg6f5n4MyjJK3C6jBvVb64t5SEhJy9v0rmjSeeOI9etLM7JCXz49JOTs5jX8QRBfHN91dTUlG7P1JB98susV4/+82a1HdRfxCjh7xRVVcz79THv12f05nVp36P8797//PRFTRVfzCZUFBU7bdi+/O5VCYfgecmp1xbZi/+Ys6qubv/5s7pOGEM5wuMoKrbp06tNn15jtqxPCQv3u33/60s38S8qHmzcqdPcuHlHKzoMVAG/SsQzwi8q2lp9Zs/sPnmclpEhhW8AffPW+uate9tOKy8q+vbCzff67Xp5r+T10dNtB/Vv1qolAVIlFArvrtmcHBpRXx+opK5mNWxIB5sRbfr2IvWcL0dRsXlHq+YdrXrbTqupro79FBj62jPC8y2FU6HXucste3Zr06cXHXo482esz427lIs3M2s5fN2KDiOG1vmD9G/ucrmcX9+H43ZtCXJ+9v7yddHnj/63j3cf9p09s6mZKYWyIr6a8PHeA1IXGCpaWr1mTqXhYcWvrLy2yD4/NV3Mz5GTl7cabt13rm3LHl2p/WTIYrGMLNsaWba1tl9SXlQU/Nj1070H4n+H//T/5LLHYcqBP+jW8x5nmPRYhrQwL//6+YHEBXqnsaMY1jr/T4xbHUOUSIWjqDhmy7q7qzczpVFyHIXRW9bVuRnjwkqCIN6cu9x90lhmTYrXbfxo0e92oj74I/8ihcJiTFbDrRvwbkQguLd2q5iXTXIchf5zbIfYLVLR1qqviqnp6g5buWyI3aLvXu/eXbmeHBou1jXK6fOG7S3aWw9i4pixGDxg1NoV9XWgGba3mOawZ9SG1e8uX/9w656Y78jEBQQFPnrWa8ZkSV7o37JfI2Zcq66nN9huUa/pk+rx+VzjDlYzj1mN3rLuzbnLH+8/Fqdja6r4d9Zs2vjyMVdFhUEDVUVbe8Ra++5TJtRLryqrq/edPaOP7bQIT+8XR46L+bhQTRX/ye799k7XcQ6SrrcXHL+/eVc/54imTQcvXdBr5hRSz6f8ljybbd6/r3n/vpP+3BHo/PTdpWvkghuh8MHGnZvcntKhh18dPUXty4fN4Y7csGrgwjkUkq9/34b0mzOzx9SJ3peueV90pPYgp6Cm5uXhEwuvnMVRU6enu/alfY8S5xNYcnI9pk4cvspOw0C/vmqlrK4+cNHcAQvnRPv6+zje+un/SZxP+3Tf2aijVa9pk+jT7XmJyaHfqUxUJ6/A1jNvbWTZvplZS3X9ZurNmqrp6rI5CgpKigqKisx6bUikewRmVbeaz0/4HCLixqbdO0tshbJ6UVNd/WyPAxOH0Ztzl4uzsmrfptPoUabdOzOlRYMWzdNt0bz2bZgYVhIEwa+oeH2MYXMGW42wZnNFnXMh5lMgASLLio0P93hDqoi6nl6bvr0brkoeZy6KMwUVQRBWI4Zt9Xoxbsemegy//n5b0mHUsNVPnWyPH1Rr2pT6BwmF99ZvK0zPYNaA0TQ2XHDl7JJrF+o9ZVbV0R63Y9Om10/NevUQ86PcT56T5AzQz3bvT4ukvrouS05u4MK5W9++6D93ZkNcZarp6k7as3OLh2vLnt3F+Zz85FSXvYx5q4IlJ9dvnu3WNy/6zJpev73KkpOzGjl0s5urzcY18gpivfwSFxAU8toDpyEp+vkxwP1kPaw3pa6nN2nvzh0+7gMWzhE//Po7NpfTd/aMrd6vph7co2lM4gHGoszMV8dOSf+GPCU10tuHQkEtI4PVT50GL5kvfvj1F46i4si1K1Y53yXVk3/3/c07MX/6agw+PXgc/MRVnE9o3afXxtdPpznsqcfw63/f4SyWxYB+y+44LnQ8p93CWJyPerJ7X50LwUlSUkgYqWxXw1C/3/xZdneuHgwPWv/cedrBPwcumtvJZoRp187azY3U9Zopq6vLXvhFMC7/Svv+Q/T3I9oPHcKs1vndcmLo6rCiRCosFmvCru2MmJhJRVvb2q6ONwRrqqtd9zL1/ergp8+Zdf7mqqi06iPqLXHyt7Ca6moCRPP66Cmyc1r1nDap4Q7kpG+hb85dplxcWUN99pkj8y+ebOgfP1gsVteJ47a8fTF42ULKvcErKXmweRc9F9f7rU5jRm169aRBl5ho1qrl8rtXR65bKc4YK8nJ8bl6WzJ9EvLag8ITlH/RNW2x5qnTuJ2b6/ee+Xd/yMTe6frEP7bLcagvvBD02CXC05sRJ3G7O1cn/rFdSV2tgf4Em8uxtl+y+sk9bROxbp9eHTpeUyUjq4UyTnlRkdO6bUKBQKxzAZs9xG7R1rcv+s6eQeFNcFHHG4fTa8bkrZ4vhq+2F/0QDrj/OO37DylHIU6PKMybqWvaYuXju4btzBuiSsYdLNc8cTKkOj203+37OHZqkZOY7LKH+v0RR0lp8r5dy+446rVp1dBVbW89aLO76+jN6yifFgX8KqcN26r5fIbtJBarnfWgpbcu7/zgOXH3ttZ9e9FwIrMGxbD8K/FbqOgbtxLvp05Jn4YLC9+cv8zckRT8xLXOSMXIsm33KRPo35axW9crqtbxioffLafMmDim7i2hkLZL2v8Xs57dRNySX1GRGR2LSxBRhLl7RniRu5vlKCv3n2/bQPWp4vHub9xB+W6kReeOG92fdR4juVm6FZs0GbNl/eLrF5Q11Kl9QszHAL87DxhwsSQnN/GP7XPOHJXA628sOblhq+yW3LzEqWu66Fq8u3K9NL/BVygvyc17sns/5eLtrAetdXlg3MFSUle8rH7zbFc+uCXOc4suex34lbRezdmkU4cNrx+36t1DAn/LyLLtetdH4jwPm5+a/sXlFU5GUuGy93BJTo44n6BrarLmqdPozesaOr/+hc3ljFhrv+HFYz1zkaIBoUAQ+ylIij1cU10d6PyMbCllLc1lsRFFxQAAIABJREFUt6+oi/N4dV1UdbTt717Xt2hDoWzoK4+yggIcPv815B5u2UF5KsymrVquf/Wkz6zpElsdiM3hDLFbtOrhbXU9inNuZkT99GDUCm+t+vTc8PLxIsdz5v370m0VJolhWP6VHCLqQyvcJk0M2lkwqGmvj56mvNQLXa4kRIhURm1czVWl9ewhxh0su9a1bALTw0qCIJJCwr65vmRQhVv3IhFnJ4eG4SqkTjmJyY+2/Um2VL95tsoaGg1UJY9T53MSEqmV7Tpx3HKnGw16xfxfLAb0W+f60LA9xTOO2/HTxbm5dB4qLDZ71qlD/ebZSvKPmvfrY3f3KuXnd/jl5UGPGnzum2d/HKC8uNXgZQsXXj6jKPETokmnDquf3NU1NaFWvCA9w8fxJn2v7Hv3WHb3qpqursT+oqKa6qKr5y2HUX/hwPviFTEfQQIKIr19vjx7Ls4ndBw1fN0LZ2PLdhKuuV5rs7UuD3sw4efktO8/KHxDTnfY09ALTP86cpfeuKiirU22YDWf99X1NY6g3/K7fT8h+BvFS6mB/dc8capz8pmG0Lyj1brnDynPveDjeDM7LoH+e0dJXW3u+ePL714zaGveyAcqw+a/T48S9SVb025d5NmMaV3mz9jAR0+ZPph+RSpdal3fV01HZ9XD2yU0XpmiqWmLOuPw18fPMD2sJAjixaGT7Ydbc8V4wkKSDNu346qq8EpKRdk4I/onrkJqV5qXf33xCrLLgavr6VnbL2mgKuUkJn+4TvGdtcHLFo7Zsl6K/allbLTi4e3Lc5cmfQ0hW5ZXUvr6yKkZR/bTc6iw5OTmnzthOVwK8wmYdOpgd9vx/PT5/MoKCsU/OT0cvHRBw72rG+MfEOrmSa3ssFV2I9etlNY+1TQ0WPHw9vnpc3MSkigU9754rcfUiep6tFtEpXWfXguvnuMoKkr477K5nLnnT1xfsirKx5faV1+0r7/FwP44MUlMNY//bK9Y8+0OXbF05PpV0np6QoHLnX5kv46Z6evDJ+ncz3FBX8gWadO3tzhpMilqzZrNPLbfccFysgW/e/v0nz8Lx9E/lBUUeJw6T61s98njpx3aW49zvZGlqqO97PaVW/brKKyGUVNV/XSPg93tK3TeO807Ws09d1wCyTIjMCn/qubzRV+v1Kw3k15+dN13WFBTIwPjSZRIRd+ijT6T25j5MzbwwRMZ2FnF2dnvLl+X4j0YKXLy8qbduoi44EDGzzgC/ltRdvblWYuz40n/WjXpz+2KTZo0UK1eOhyjtiST1MOvX7jKykuvX7wwe2FaBOn5VoKfuPadayv55whEMW77JqmEX78YWbWfeeLALXsq+zc/NT3y3YcGWmFTUFPjsp/iFCdDVyyV+hevqo720puXz0yZQ+H9L35lhfeV6xN3b6PVQG3a0nT+hZOSD79+kWez55w5enqyLbVZXD85OSP/kqQPN+7kJ6dSLj5m24bBSxZIvRXWyxY10dR03vYHQdfpLBI/fyVbZNDS+ZKsocXA/p1Gjwp55UaqVFxQcGVZWcNdDjGUx6nzFcXFFAp2mzRu+uF9Up8hWp7Nnnv2+LXFKyisCxnj9zHS26fdkIH03DXm/fvOv3xaWudHOt5UMqiuOfGJoi+ga9KxA1PaFebuKeYKrPRRnJ397tI12T5mZCasJAji3eUb+SmpTKmt6Ad11s8YfLn/l4TPX0+Pn5kVR/omrc/s6Q2Xg8QFfSE7E9kvvWdOpUP49YuimurSm1eambUkXVIo9DxNx/kjek6fPGDhHOnWocPI4UPsFlErG/iwoX6rCHR+Rm2ewc7jR4/asJoOO1fL2GjehRMsSk/KBz14SqsZcJTU1RZfv6iopirNw19VZZHjeY4ilXmgIr19SnLp+1y8jCnNy/cSY5UVm01r6RB+/dJr2qTpDntp29VkZ99X1lBv1bunhCtps3kN2ceOBPwq6U6sRkPZCYmfnJwpFLQcbj3jyH6aLI/G5nIWXDlj2q0zhbLup87Rc2Jli4H9F145i/Dr75iUf+UmpYi+sa5ZC0Y0qprHf0nvp5fJenflJoMiFbLC3LxkJqwkCKKaz3vBnOGn21LUSQHKCgori0vw/f4P/IoKt+OnL8xcUJSVRbaskVX7cTs2N1zdvM5cpFDKtHvniX9up1Unq2hpzr90ms0lfZ0R+fZ9Shi9VmXVNDYcv2sLHWoyYs0KKqkiQUT7fmqIydprqqqoTQFp2N5imsMe+uxi066dbTZSCeP4lRV+t2i0CNqEnVu0mxtJvRo6JsY2m9ZQKCioqfnuxYCFNWWDz/Xb/PJyamX7zbW1Xr6YVs3pMW0iTSL131yM5ReS2r5Fl06Sn7tG29ioPfk3LlMjInEo/d3b81coPBzQtFVL22MHaBJ+/cJRUpp7/oSylibZgmkRP757vaPbftFrbTb37NGGW5qWoZiUfxWkpYu4JbdJEzUdHUY06p3jjTwyuR79MStSIdk0/sujJ2SsUWGvPWIDghlRVd0WpqJvnC/y10VjUM3nBzo/PTx83JvzjhQuULRNjBdfu6DA5TZQ9RK/hsR8DCBbSlVHZ+75k/IKCnTr7aZmphN2UckK3168TquGTHPYQ5P5AdlczrTDVJ5xqOZVxvgH1Ht9gp+9KEzLIFuK26TJ/Iu0ewFh0KJ5RlZUXrz1u3ufJou+Wwzs323yeJr0Z795tiadqLx/EOLmhVOVBJQXFvrdcqJWtlWfnjT5SeAfhq5Y2nn8aLrVqorHIzt1o65pC6lUtTv5L5D0yCgcTX/JS0796kp6HVuOsvLCK+cksKg0WWq6ujMO76N0FedIq4ZwVVUWOp6nYQ9LHZPyL9FvaHVbmjCiRcU5Oe8uX5e9UcWgSIWU94438xJTZK9dLvsOMeKNTlLHNfKvX7LjEtyOnzkwYOSjLbsp3LETBKFpoL/slqOqjnbDVfLtxasUSk3eu5O2v3P0tp3WfuhgsqW+v/EuTM+gSRM6jhrepk8v+nRpiy6dLIdbUygY6e1TvzURCgTelK5xbTau0TIypN1VoLz81P1/UMkR8gui3vtJvf4sNptWD4Gy5ORsNq+jUDA+MIhH9aEkEJ3f7QfUHv5S1dWdfeqIFOfnrt3UA3/otTajVZXKCwrJFqG84K+Y2vTrTfbN5bQfyL/+553jdQr3ETab10lltUdRtLce1Gf2dLKlkkPDU8Ii6NOK0ZvW0uHJaBpiUv5Vki3qLK06JszIv146nOCVlcnkwGJKpCK64txcbxmd2izjR3Sg8zP615OrrKzWtKmo+ysru3F+p9dUV2fFxn998frJ7n2Hh449PGzsm/NXirMp9oZWcyP7Bzcb9PRZkJb+Q7RlDf7OauQwq5FD6bwjphzYzSH58JSgpsbf6SE9buJZw9fY061LR1CqErUl+WoR7feRwlPbzTta9p0zg55j1ciqfcdRwykU/PzshdQr333SOB0TY1r1Z6te3Vv17kH6q7uqOpH86rFA9vwYcN+ZWtlJe7Y16O9A4l8gzTx2kFbvkdVUVVHYQVKpqgKXa9SB3GOwhemZ0qot3fBKS788e0m2lGm3zv3IB0ySNGbrBlVdXbKl/G470aT+Jp069LGdhvH5W0xa/7FM5F8S6HYx9Fup4d+/uL6U1YH1K1LpPWOKzLRIhsNKgiDcj5/pbDNCupMHi0LbxEjEKKeM/A+PDS054vvLw/X8/mw1v4pfUSGsrq4oKS3NyyvOzS1My6C2iuJvzp1dOi24dLqhr/gDHz4RCgSkishxFCbs3Ezzsaqmqztk2UL3k+fIBQqPn9usXy31e5gOo4brtWlFty41aGtuPqBf9AdyzxwVpmcW5+Sokb+K/S+f7j2idPO8k1a3pv8wbPXyUDdPsqW+v3tfXliorKEhrWrLycsPW7GUhv05eNlCCtNjx34KMu/XB3cmDSfyrQ+F6S8JgmhnPajDyOE0b52RVft+82b53rhDlztMRdJzJpTl50urtobt28UHfSFRQCgsy8tTa9YMh9UX11cUnqmcsHs7nc+JBEFwlZVtNqx+uHUXqVIhrzwn7tlBh7VBbTavo3kPS/PbiUF1LRV5sSFFNTWat0UoFD7ZvZ+2KxbXi9fHTuclJctGW6p4vC8uL2R4Z5Xm5XuevTRuxyaa11NJ5EObhvlXZlRMZhRjFqbsOWPKpD+2N/SUmUKBIODhU7Kl+syYqmGgT/8+7D9/9rurt3glJJZiKM7Ojgv60qpXd+nWvC9dfzPsOX0i2fyLIIiUsO/trQfVSwWKs7IovFBpMbC/cQdLOo9VffPWZr16xAWQi2wE/Kof7z50nThOWtW2GNRfy5iOL3e06dtbXU+vKDOTVKnkkDBaXPBUVuQlS38VI65KExXyU1DXLuARlQVhOUpKk2i20Mp/Gbl+ZbiHV2F6Jh0qwyUfAeQlSW3gaZP/JinKQf5FEAQR8P/Yu++4KI7Gf+DXuKP3XkQ6ShELICIWFLELtogVe+/dBE1ib4m9xN5LrNg1duyI2MECKCJNer3j4H5/+Hzzy5MnkZ3lyu7d5/3izx1uZnd2b/ZzuzNHjpEW8QkPs/duwPymNe3Z7cqGzfmfCCZUkYorX/5xvWmPrqqtuVOzxiofSTIZm/KviuJiiltq6+kyvC2PT8R+fPpcvftWeX6BWs5upq7i9h4IjOpt5ezE5EqKKJ/alZQvF/A3usZGfRb/6NspTAmflfIooSQ3l6gIX0sYOm4EK/aktoF+UFTvG7/tIir15Mx51Y5aTO1tXcjf3lIOr3Zt9UyMSdPtT89fySv/enrhDxqv9neYNIb53TWof2/S/IvD4by+dUeF+VdA70hm7kwen+/fq/sfG38jKpXBjBm1Ux4+XtKmo8qr0WLgd71+jpHjPywvKkq+fZdGwbDJY03sbNnxpaOnF7lg3q7RjFgOUqSrK9LTI3pzIvVRglQsUcladR4hLboQztynZ2TI0Xi5aR8zXrwmLdVx6nhWtI4vELQaOvjUwmVEpRLPXFB5/tVmxFB0zm9gU/4lraS60pCQ2fmXpKLi/Or16HzAKNVV0rNLVg3fvpHJlaT+c2JVpRjHlAb/Xj26zpmub2aqnI97euESaRG/LuFGlKeBU7lmEd1I869XV2/KFsm4XK6q6tw0srsKP72WIYtQ2KBtq/gTsUSlPr18Jb8ee5G0iJN/E8fGjZjfV73atRWItKXiSqJSybfvympqVPKSha6xUcPQVozdn97h7Unzr4qi4oKMz2yJWljnxaVrMvIJmwwsLFoO7s+iZnqHhTo1a5wa/4QJlTGyscp5l0Jwf1RZkXT7jjf56jF1Z+niFOoyHKcJqWfkL867tghk4AQL/zrm7NYpdslKot+93sTdl1RWqnCtZz0T4wZtQ9A5vzWYZNP9uZTqTIoMWbL931zd9BvpU/EASvDq2s2km7c9WzP3okn91JZKJDigZCOSoIDOM6c4+vkq7RNlMtmz81dISzWP6sOivWrj6W7hVD83NY16keKcnKzktzae7qqqc4O2rZi8S91DWpDmX7nvU+Ty0UU5OanxxDOUB/SKZEVfFeroNO/XM/Ux8W3zlw/pFk4qWHTIPbgFX0uLsfvTvqGnvplpaR7ZfEY5qWnIvxTk6aUrNEqFjh6mwvtYejpMHrd10Egm1MTWw50o/+JwOJfXbfJq14axv8HA308r8l8xg6LYNDe0gbmZc2Czd3cfUC8ilYhTHsZ7tmqpqjr7de3I5C9HJmBV/iWhmn8x+fmvgozPN7bvQ88DZjq9cIVbi+aMvW5SP7WrxMi/qOFyG4a2bj1ssKvSX3nLTHpT8uULURELJ0dn/ybs2sF+XTteWb+FqEjS7Tuqyr90DA0dfLyYvD/dg4OIv3Yz5bMa7Nu4e6SzdgpE2o06h7Glr0YumMeiM8sjhNFTxXN5PLfg5k9iz5P11fQMfCkpglQiSbn3iLSUSE8vsG8k6xrrHhxk08Aj83Wyymti29Az8RzZM7MZL14/PHYysE9PdFrmK80vyHhJ9ta2rrGRd1g7lo3iOocT5V8cDifp5h0V5l/eHdqhc34b1gVQ/s0mftMAoHv6cHD6yI2xrXXo2BFzrp4bvm2Dqyrme3pLOJ5g6Ze6T4f2pEXSVPfqimtQII/PZ/L+NDA3MyNc4lkqriwvLFRNjw1rK9LXx9VGITf5IUEMr6GjH/F7r3npn3BkFeFD4nNJZQVpqWY9u7H0/G05sB8TqkFvaHH8h0UfnjxFp2W+d/cfkv4m1KBNK4FQyK5m0hh5pj1W2SiOryWs37QxOue3sSn/4gupPpMiKStnbCuMbW3ajBiMngfM1CNmFpMfmqU+kaqWSIij+e0vSJcAfxNbm6qKCllNjcpGToQatG3Nul1t7eEqEJItA//x6QtV1dbB14v5u9TW04O0SMHn7Lp/7tu7xD22IebgUAx9MzNjG2umd9QGxB21KCsHB1cR3t69T6OUf68IlrbXr3tn0u8dhXyh+HjpmRiTlqqukuwYMf4DM5ZDhW+N4u4Qn1YNQtn3nWhgbmZsR7bmeEZSsqqmYanf1I91r2wrH6vyLwHV23JxeTmTG9Ju3EhjW2t0PmCahu3aMHnyL6JTm3W/LylZdZXk8akzx2MWru7Sa2HLDudWrsl+l6LkOnxIIJtKScfQsH6TRqzb1XyBwNrDhahIcU5OcXa2SmqrwnnHSCpJHivUeX8Wfs6kMXGna3BzXG0U0gfIoyXlsyU/m0rzC3BwFSEtgfh5IhMHOwdfb5a2V1tPjwkzOfL4/EZdwmkULCso3NJ/+PNLV9F1mSz1CdkojsvjeYa0ZGNL7Rp4Em1fI6nKTHqjkqrWa+SNnln7pYlFdRVoU72hZfLzXxwOR6ij02naRHQ+YNZdupag27wZDK8k9ee/BHj+i3o0kJV1bfP2FR26b+w3JOVRgnI+NP9TRlkB2Stp9Rr58AUCNu5hW8KRE4fD+Zz8li137Mpn4Uw823plaWkdPzT9OfEiktYerixaq5Rl55SnG/MrqWNkqG9mRlRELi/qwv/KePGStIhveHtWN9mXGTMPBvSmOYGapLJi99jJx+cvlFRWogMzUJVYnP0ulaiIlZuzjpEhO0dxxL+4ZCapZhRn7eaCzln7TSKL6qpnZFiYkUlppMvs/IvD4TSN7H5n3+GPT5+rcd/SNTUJ7BOpHm2pEovj9hwkfcudXVoOHmDpVJ/hlRRTPrV1jIxwfSeV8vDxxu8Ge7YO6Tp7qqKfA8p48Zq0CCtezfuXe3XikdOX1I8cpf94LxCKmP9OGYfDMbKyIi0irRDXtce+JM6/nP2b4qqiIMz/tvq/vmpempdHffvK4mIcXLnLT/9UXlhEWsq9ZRCrW+0eHMThclU+cHXw9XZr0Zze+6ccDufu/iNJN253nTu9Uadw9GRGyUx6I5NKiYrU82Hro0k0RnG5Hz6opKrW7u7onLUPd1lUV11jE7UZQHC53F4///BrRD81jlS6zJjSvF8vtWlOZXFJ/IlYdT1Y+mamHSaOYX49K4qpDmH1jJF/0ZR08/bbu/fCp0xoO2qo4qZCz0giXprKgbUjJ0Mrc+KRU2qa8utpQF5PFWUKxA9Viev8BEEG+WJqNEbMQLWvWlqwo69aW2e8Iug5UsoLnQN1n18Tv4jE1xKwPb/WNzWxa+hBujyfInSaPvHtvQe073fyP33eO356vUa7244a5hPejsvD0m2MQOM70d6XvaM44m+c3BTV5F/mTvXQOWvFposI9TkUv3xIZ35z7H28mkV2U9eOZdPAI6BPhDq1qMucaSI9PXU9Xp2mT9Y2NGB+Pb+kUV0bS5d8ylX4U3WV9PzKNZuiovMVthjZlw8fSYtYujmzdH9qGxCfXPkZn5VfT2MrdrysZ2BhRlpEKq5r/pWXRtxjrT3cOKCouxF29FV9c7K+ivxLIV83H4lvCmw83YU6OmxveP0mfkyohmPjRoF9e9bxn3x8+nzP+KlLQjtfWrMpRxW/D8H/DMiJ8x0rF40axalgMV+hjo62+t6ryhGb8i/qP/d9UdEzh6TUOFKJiJmjuCdHVDPaNjdvN3aEWh4su4bsCCsry8pKcnMpbmxkhWl36io1/snanv3TnynkNe180l8puFxTW1uW7kkd8pFT6ZcvKrjKWbDjmRoa96VVdXv/USaT5aVnEN9CuyP/UhQj8gxURX2VbB2uainyL/nL+0gcXtt7e6lBw+29mNKK7nNnmNV3kMPI4eOny+s2LW/X9ZfufW5s31OUlY3urbrTijjfMbVn7yhOn3wUp4LFTNjyFL/Ksen9R1M7qqdNzvs0VrTI0Nw8dMzwC6vXqVmv8uvS0bW5v/qdLa1HDHlw7EReWrqatatHzFxWhJW5qQS5tqm9HdPq36hThy6zpynon1cUFUmrqkpyvhRmZRdmZma8fpOV9KakzhlKaV7+pn7DBm/6pUEbOS8MSpomGJibs3dNAxGNkVNevgru1XXZ8bwDl8vlawmrqwgWF6+pqa7LJxZn50glZAmavpmZNvlxB6p9VUeXHYNskYhoe1mNDAdX/jfqH4hv1G0bqMPLyzYNmdIKbUOD6I1r1vcZJCmXzwTNGS9eZ7x4fWbpKqdmjb3at23YtrWVqzO6ujLlp5PdDfH4fCM2TDDK6lGcoTnyL2pfzSyqqwnl/EtSXl6cm8uKn7LbjIx+ePykOkUqAqGoy6wp6nm2CIXdZk3fPU6tWufXpaNLYDNWVJVoRiTqcbnyvj71dM3q2Svs3//Df85L//Tmzv3km3deXbtJFBb81+W0smLnyAmD1q3y7SS3xaSqq6qI5oTmcDjVVZKj835k6VkmqaggHjnlq2AZOIGQNQmjQFtEu0vTUJSdQ1rEyNqCA4rrAIS5kqposaSef2Xt5hISPVDl1bB0ldsqZkW5xOevuaODGpwmlvUZNBOQbQOP4ds2bBs6lvS3hG+RyVIfJaQ+Sji7dLWJg51XaOuGoa1dAvyxArgyvhazcom25/EFx+cvYmtryWevq66SVJaVKfltRLb8MqT6IQSL6kr0bZSb8oEV+ZdAKOw6c9qe8VPVpku1HT3U1MFeXU8Yn47t3Vq2eBt3V03Of1aFlV9Sqb7CoGdizIrpzBTNzME+qF/voH69K4qKEy9cvrVzb867FBr/p6a6ev+U2aNMjOX1XGdpAfFj4eWFRQ8OH9OcY1clkSj/Q/nsuWfgayl19FKaT9xjDSzxCrYiO4BQix31FAhYt2+NbGyaR/VRp95Slkf8c4KpgzrkXyJ9fX0zM9JfmxTHNShgyKZfdo6ZTLpuIBUF6Rlxew7G7Tko1NFxD2nRILR1gzYtjXAdVgyZTFZeSHZaSSVijRrFcTgcaaWYo9z8iy3fjCrHpvm/LJzrUx/ypiU+ZUu7fDuFubVsoR79ydDSsu3oYep9zkTEzFabqc3ajhnGorDywxOqJ7UVpt35bzpGhkH9es+6dHro1nXWbnR+VK+ukuwcPekz+XI//6hcFQ83sWxwKZXKamqU/KEsev5LycrJ8y8jSzz/pbCRq1CLy+ViPwDV87eQPL82NVGPthtYMut9qIahrYesWyUQaSvuIyQVFS8uX/19zvyfm4f+2qPvxTUb05+9kMnwZrE8VRQV1VRXYz98m1TpP2QKWPjEsWpGESyqq0AoNHOk+ihvyv14FjVNbSKVrnOniXTV/NlLazeX5lG91aAhRlZWbUcNZUttq6XS1PgEihvbeLji4v6/uFyud1jotLPHus6dIdQmnulJXFKyc8ykypLSutekrAD5V+2U/wgYMoV/U0reY/WwBK3iOqoMHRUof3OVllZXET9tJNRTk6Gstj7jVtny6dh+wpHdBkp5R+fT81dX1m1eE9Hvx4A2R2bHPL/4R2VZGU4KeYziirATaqX89XyV/Gg8e/HYVV1bT6pTOabGJ1Qr4PFaBbF2cwns14vtncnRz7dJ9y6acNp0mjZR19iI7a1gV1j5+dVrMeVRC5Zd++a3o1bbkdFTYo/QeBCsID3j+AI5TN8gqazEgaj965nLw05giCryGdwEQvwMC8CAk1dM/EOCUFtHbR7zF+kzcRUOB1/vqacP2/sob3nK0ry8h7+f3D1uSkzTllsGj7p3+Bjp63vwX6O4CoziasflKfunGvyKSXWExq7qOvr5Jp69QGVLcVnZ51evHXx92NK0ztMnPT13qbyQtYE6lxuxYC6VE+/cil/zPjB3vv8GbVv594749ja6xsYdJo49tXAZe898Rz/fxt06s6jCb+8/or5xvUa+uLh/m5Wr8+RTh/dNmvnq6g2iggmnznqGtGga2b0un16t9N/E2AjzODBHdRVxj9XSRv4FwMqTV20e/uJwONq6esysmJG11aTjB65v3Xlp/eYaJQ4JaiRVb+Puvo27e3z+Io+QFk26dvQOb6/2b67IfzdKJdgJtQ8DMIpjKpblX/Wb+hHdMLMo/9I1Ng6bMOb0ouUs7Un+vXrUa1T73n5z5961LTuY3JDXN+PcW7WodcrMFoP63T/8e9bb96w8WpTDSuZ4f49q/iXU1bXxxPNfFHaUjk70pl8Pzfz+Sex5ooKnFi5vENpa14j+I5DVGDnVBjMcMYqU/BYak6kBMOLkJc9WRAbqk4aIDPQYWze+QNB+/Cif8PZH5sz/kJCo5E+XSaVJ128lXb8ljFnUuFun5v16U7mLga+qxPgVk0IPxzCAsWNsdlXXtoEHX4tqZ3r1x3V2tS54cBS9qalVfyOtq9tpxqTab3qrqk79uJThbZGUl19ctY7K13bE/LksPe0DqIWVzCEuLX1H+fmven4+avPmgsK/m7W0olYtcQ8OIipVXlh0ed3munxuTZUUO//btDCJKZPQ6LE8TMMBwISTl3yWbi0t9blrFepoM7yGVq7Ok47tH7Fzs6rGpZLy8gdHjq+NjFrVuWfCmfPKX3mGlaeVFKM4CmNs5F9MxbL8SyAUOvk3prhxavyTvPRPbDpPWBuphE0YTWWN4bjBo5zxAAAgAElEQVS9h7LfpzC/OQ+Pn/749Hmtm7kFN2/Yrg37BkO6uh0phJWM8uziH1Ix1bkG3IICcWUnuuwM3rDarD7ZWu9x+w5np6TS/+JBNFDrDRhmj2LUUIm8xyLkBWDEdxz5ySshn++PsdgyT1ODNiGTTx4auXuLR0gwR0XPPmcmvTkwedbysO6PT8YiBZP7aaWJAzn8kMnYQR3rauzRKpj6xgmnz7GrdW7BzRuGtmZXnU0c7FoNHVTrZuWFhX9s3MqOJslkp35aSmWx5B4/zOax7e1uimEloxCdyJ4klwjgcDg6RoZRKxYTjThlUumVOjwCxhfgN7HaDoqhPnYCcwi0iK/zyl/4HAD+4euGfJAmLitXm+aLS9m03KFnq5aj9mydd+NC6LgRBubmKqlDbmrawenzNvYbUpcf+dT/OxEzW9VGqKPDFyAlZCgW5l8tCW5uH588w7oG9oiZw65IJeL72QJR7Xez51evY9Hs/h8Snz05U/ukSOaODiGD+7PoYFEMKxmlKCfn7b0HFDfWMzG282qAKzspp2ZNggf1Iyry7MLlopwcmiMnEfKvWuiamGAnMOgWmjz/qqoUY78BqP5GnfzkrSgrU5vmV7KwLWYO9l1mTIm5+8fIXZubRnYX6algCrPU+CerO/X6Y+NvNN6f1YzvRIziaqFvhlEcc7Ev/7Jt4G5sa01x49zUtE/PX7KrgeyKVFyDArw7hNa6WWbSm/uHjrHrQJxd9iuVZ+DDJ41V1Y9UNFAMKxkl8exF6g+ie7ZpxeWx77LGBO3HjxKICCYKqa6S3jtwlN5naWlrY4fXMnIyxciJSbfQ5D1WWoXnvwBUj0Z6UiOpUpvnN8WlpSytOV8g8Gwd0n/1kh8f3Ry8cbVfl44iA6U+Fl1dJbmwet2OERMqS0pxHv19FKejg53wbfgVk8nYd6PI5XIbdexAffs7+w+zro1siVS4PF5EzBwqW8YuXsm6d+mLsrKubd1Z+9BKX7/jtImsaBHFsJJRZDU1D0iS00adO3CAFkMLi+ZRvYiK3Dv4ezWtOVAR7tRKz8QYO4FBh8OY+HCUFRRivwGonEAopBGBidXlEbDKUtY3RKit3ahT+KD1q35+dGvUnq0tBn5nZGWltE9Punl7Xc/+Xz6k41T6r1Echii1j+Iw0GXw9wIbK+3bucPNnXspbvzo5JkOk8aa2NmyqIFfI5Xf5y1geD1bDPzOxtO91s2eXbjy5s49Nva061t2BvTqYepg/+3NAvtG3jt0lOFPGlIPKxnl6cUr1NdMEOnpubcM4gBdAb17xu0+QH370ry8tISnLgFNST9I15R45CTU1dXTpIfJLZzqo0MyaCBL3mNLcr9gvwEwga6pMWmeVZydqx63ryU56nMhEgiFHiHBHiHBvX6O+fw6OTnubvLNOymPEqoV/LBt9vuU9b0HjD+8x9LFCWfTV9qGBlyBQEbyC6hApG1gaaY5u8ja1Rn9hLkXEzZW2rFxI2M7m8KMTCoby6TSmzv3RcTMZlcbA/tG3jt05NPzV4ytoY6hYYdJ42rdrEosjl22iqWnh1QiPrdizaD1tdSfy+NFzJ+zoQ+j59WiGFYyzbXN26hv7BPeDout1IVdQw9rD9es5HfUi7y+fpNG/qVnbMzhcjkUlpj4k2ebkCEbVuMYgUrQeGKxmO7seAAgXwamJgXpGURF8j5+YuOQ6W/EpaWleXlqeUxtG3jYNvBoO3KopKIi5WF80q27ybfv5LxT1BLzpXn5mwcMH39kj7mjA04oDofD5XL1jY1LvhCkq3ZenpOO7ceuAybgsfSsC+gVSX37B4eOleYXsKyNPF7E/LlMrmHHqROo3BLc3L6HdNjBKInnLr5/EF/rZk5NG/t16cjYVlAMK5km6ebtjJdJ1Lf37x3JgbrxCG5BtP3razdpfApfICB9xbskF2kCqIyhpQVpkaKsXOw3ACYwtrMjLZL74aMaNDw3Tf3f2hPq6Hi2DomImT37cuyCe1e/W76ocffO+mamcv+g4pyczQOHFWVl44T6ysiG7C1UorAMQKHYOlF0QJ8IDpdLcWNJZUXcngOsayOTIxUrF+eg/n1qvwHIybm6aRvbT5LTi5ZRmbys27wZQm2GzgdJMaxkmqubt1Pf2MzRwSWwGa7pdeRMuA+z3r6n9+uCeX17sqEn3iYDFQ70ra34WmTPy5d8+UJlBRUAUDQaz+x8fp2kBg3//DpZow60oZVVQJ+IgWtW/PjgxsRj+9uMjDaT6+NahRmZe8ZNVZu1Eep6WtWrRzaKy8YoDpiCrfmXiZ2tR0gw9e1vbt9TmJnFumYyNlLpHjOLynrw51esUYMbgIyXSQ+Onap1M2Mb69ajohlYf0tnJyphJdO8uHwt5eFj6tsH9u3FpZyJw7+xbeBBWiQr+a0SRk5FmbmsW0MD1GeoxOebks4iKpNlv32HXQegcmYOxCHIp2cv1aDhGS9faeYR5/J49Zv4dZs7Y971CzPOn+gwaZxpPXu5/OcPic8urduEc4pD/iumVFxZXohlYYAZgzr2Vr3VsIHUN5ZUVJxZwr5ZqIxtrFuPHMK0Wnm1b+vZqmXto4fnL+NPnlGP8+TCyjWVxSW1bhY6ZriJrQ3TKt9j/mwqYSWjSCorTy9aRn17gUi7eb9eHKgzE1sbnpCst2S9oXOTb17fkXTk9OXjJxwgUBVT8lvoz7SiYQCQLxrTluekppUVFLC94WlPEnH0bTzdw6eMm3f9wtiDu5pGdheItOv4D6//tjsT13YOx9zRkbRIZjJ+EwJGELC36h4hwZauztQnO0w8d7F5v95uwc3Z1czQsSPij58u+JzJkPrwtQRd506vdTOZTHZiwWKi+a2dA/0d/XyU1pCnFy7nU76dLs3Lv7xhS/d5M7+9mVBbu9PMyQenMmiZxYbt2lAJK5nm2ubt+Z8+U9/ev3d3rDQsF1wez9jaKp8kacp6Q2cgaOfVgHjk9DrZon49HCNQzU1UA/fk23fIemzSG+w3AJWzbehBuuIKRyZ7/+CRb8cO7G11eWHhpxevcfT/M7bhcl2b+7s29+/547w7B4/c2r6X9soAMqn04i/rh25dp+G7lMYo7vPrZExUAkzA4vyLy+W2HhH9+5z51IucWLB4+vnjAqGQRc1kWqTSathgS6f6tW6WcOrMh8RnBM3U1R20boWhhYXSGuLa3H/b0LHUt4/bcyAoqq+FUy0/dzTp3uXewSOpj54w4WDxtQTd5s1g3an95UP6tS07CS4FPF6rYYNxNZcXkZ4e0fYlX+gMIu29GxKPnJKSfTuF4QCBSth7E4/1U+OfYL8BqJy2np6lU/2clFSiUkm37rI6/3pz9wFZ5KchncFAv93o4a2iBz44euLqxm30Fup9ceVa1pt31u6umrwnrdxcBEKRVCImGsWhBwIT8Fhde//Ibqb2BFNy5KSkXv9tF+ua2aR7Fyf/xkyoib6ZWfuxI2vdTFxefnb5GqL/HDZhtDLDLw6H49k6pGFoa+rbV1dJY5esrHUzLpcbETOPw4yJqEKGDqISVjKKTCY7MX9RdRXB9KJ+3TqxrpnMvlXQJdq+srSUxqcYmJsZWVsTFUl5lICjA6pi7+VFWiTj5evyoiLsOgDVn7++xOfvyyvXa6qr2dvk5xeu4Lj/Gy2RqOWgqNlXYptH0Zwe996hoxq+D/kCgW0Dd6IiqY8eo+8BE7A7/+JrabWbMIaoyOW1m1LjWXYTxZxIpcvMKdqGBrVudm0z2S8qpvXsWw0dpPzm9IiZQzTV0aurN5Ju3q59mOXdIKBXD5UfLH0z07Bxo1h3Ul/ftovoJSMujxc2cQwH5EdWTTbNPL38i8PhODUli/XTHieIy8txgEAlzB0ddI2NyE6lmpp3dx9i1wGonEuAP2mR0ry8dw8esbS9koqKV1dv4rh/m7aBfp/FC/osXkDjDivhzAVWx6Ny4dSsCdH2uakf8j9loOOByvHY3gD/yG5Eq9vWVFfvnzKLdStQ2Hs38Fd1pGLX0MO/d+11yE//dGPbXqL/3GPeLIFIBS+lmjs6hAzqT1QkdtHK6qqqWjfrPGuqyEBftcer8yxKYSWjfEh8dn4V2ZQKTSO6Wjk7cUB+xIRrtopLaWZSbiFBRNtXV0nf33+EAwQqweXxXAIDSEslEU4ZBgCK4BYcSKPUIwprfzNT4pmLksoKHHcqmkf1iYghnmSmPL8g/dkLDd917i2J59ROjruHLgcqx/r8i6+l1W32dKIihZ+zDkyfJ2PbW/GdZ01RbaTSY/48Lq/2DhO7dDXR2+CuQQHeHUJV1ajwyWP1zcyob5/9PuXu/iO1bmZgTulFUcWxa+gR0CuCXT28oqh4/6QZMqmUehGBUNRx6gRcx+V8IEpKiLbnC2nOI+lBvhrJ84t4oQNUxrVFAI0eK5VIsOsAVMvMwZ5ovpSvEs9fKs1n5SqQdw8ewUGnLiR6gFf7tqSl3t59oOH7zTmgGemK4XgtF5hAoAZt8OnY3jnQP4XkKeWk67du7tjbZsQQFjXT0Ny8/diR51b8qpJPb9y9s0tA01o3e3f/EdENKo/Pj5g/V4V7VaSv32n6pN/nLaBe5NLaTU0iutS62mCrYYMeHj2em/ZRJe3qETOXSljJHDKZ7PDsGKI1HzkcTtsxw0zsbDkgP9VSaXEW2XSwWnRXEzexs7V0diKakzjx/OWIH+eJdHVxpED53FsGkRYpLyx6ff22T3g7VjTwxR/Xqa+p/acmPboY21ijewDDNQxtE7f3IFGRGknVnX2HwyePZVdLU+MT8GgSqW5zZ7y6dlNWQzD/Q/rzlxq+04Q6Oi7Nmr69e596kTd37hVmZuErA1RLoB7NiPhh9pqI74jexD67bLWZgz1bRqVftRkZ3Tyqt6qucbUPFKqrTy1cRvRvg/r3sfFwU+1eDewbeXf/wYxXVBclqSguvvjrhl4/x9RyagmF084dV8kv/1wOV8fIkF2n8Nllq19cvkpUxNjWuu2oobiIy1dBRibplBa6Rka0P65Rl/Ar67dQ315SXv703OWAPhHs2Z+fawjnU+NwOGb17NEVGcjSqb61m0vW2/dEpeJPxrJipCGTyU7+uLjwcxZRKb6WMHhwFPoGMJ9PxzDS/IvD4dzeva/1sEHaqp7RgsildVtwuElZODm6t2yRfCuOepHMN2+w3/y6hBPlX7KamvgTse3Hs2Z64uLs7CpxFWkpY1trvkCA7sFYanJs7Lw8Q6IH3tyxh+gM3Ddp+oidm92Dg9jSTB6fX5dbTUW7f/hY5muCpW11DA3Dp4xXebW5PF7kTz9s6EMwAf+9g78HRfW1beDx7c2EOjpUckO4vffQjW27SUtFLsBzQPL38dlz0iKGVvRXbvXr2oko/+JwOHF79vn37sFlxhKr31aUlb24dUei35M5HI61m8vMS6fRFZnJt1N41ttNREVeXb3x5UO6OclEpao59xOfkYZfHA7HrUUgrsPACs7+TfTNzErz8ohKVRQV39i2q+O0iWxp5vuHj9/G3cXhpsGnQyhR/lXwOUtWU8Ouly3kzju8/bEFi4mmLrl74GibEdEqmfeZlLi8fFn77uKyMqJSuqYmPz24gROKydQnm+w4bcLzK1fzP36iXqS6Srp7zJRxh3bbezdAV6ijypLSS2vI7grCp02s9S1C5XBq2tivS8fEcxcpbi+rqTm1cPm4gztx3OsuIfbcqZ+WEN+Fdg73DgvF3pO7lIfxpEWMbW1of5y1m4u1h2tW8jvqRTJeJb+8cl2FkwZS9/D3k6ThF4fD8ekYhn7IWI26hF9eR/ZNV1NdfXXztu+W/czwpj04eoLOzU9YW/QKYAUen+/XrWPc7gOkBa/+trMxS1baqamuPv3zEpVXozS/4ETMQtJS/VYvEWprq7DapDeDNZKqsoJCfTNTTT6t9E1N3IMCidZtL8rKun/0eMtBLHhwOPHcRdLwi8PheLdrw+Pzccll9NeB2rREqKPTd/GPpKXEZWXbh4/LS/+ErlBHF9dsJPpVzdLVuUX/Psypf5fZUwVCEfXt399/+PziHzjudZR0K+7wzO85hItR6JkYRy6Yg70ndzKZLOn6bdJS1u6udfnQoH59SYtcXreRRq6kZFVi8Z19h2kU9AlH/sVc1m4u9Rr5kJZ6fDK28HMmk9tVUVT85PR5GoGCF/IvYI+gqL40StVIqk7ELGTFqll3DhylPpuHIu/ItJ9euEz6l/chXbXVNrS2Ir5ylpTitAqKIr6bu7Zpe5VYzPB2yWSyW9v30Cjo26kDegXDqdVDm27BzUOGDiItVZKbuykqOu8jIjD6ct6nxu07RFSkxw+zGPVqtKm9XdvRZJNJnV66kvmXbyZ7/yB+z9ip1VVS0oI9F8YYWlhgB8pdyqOEAvK7dBtP97p8aLOe3UlfE854lXzv0O8M35kPjp4o+fKFtJSFU327hh7oikzWYsB3pEWqq6Rnlv3C6Nvm/YcllRWkpTzbhOBSDCxi7ebi5N+YRsF39x4mnDrD8Nblp386v5wR1xmhjo7IwIC01OdXr1VbbZEO8avcVRUVcq4E4duUsmqpyg93w/ZtjKzJ5rMvys7+Y8NWhp9QLy5dJZ3uk8Ph6JkYu7UIxMWW4dTtpeWus6bSuBkr/Jy1qT8iMPpOLVxO9O63d1ioZ6uWTGtF6NgRJiRvchWkZ9zasRdHn573D+K3DxsrIR86BPTt6dc5HDtQEe6Rr5iua2pi6VS/Lh+qbaDfNKIraamzK34tyspm7J6sLCm9QmsG4qD+fdEPGa5R1446hsQLjCSevUD0hogyVRQV05iBkcPhBPbtif4A7BJM962rU4tXFmcz90unWio9OGOeRO5xDF1WzsQDg3f3Hqq2zuKKchoDGPnWQUuLbFasyrJylR9rvkAQRL4429WtOzOTmLuAQHVV1bmVa2gU9O8dIRCyYGozDadu+ZdAJBy4diWNSccLP2dtGjA0/1MG+gSp1zduE00YyRNqdZ07g4ENEWprd5o5majIH5u2FeXkoA+QenP3/m/RY2gM1KzdXCLm481Hhch5n5p49iJpKRf/pnWfir7t6OFcwqdBxSWlR+YsYOxbkJfXbiKdZZnD4QhE2v69e6ArMpxQW7slrRUPj8UsZM7d6V9dWre5oriYtJSBuXmDtq3QH4BdGnUKt6hfj0bB8vyCvZNmVEulzGzX+VVrUx8lMKc+NCZGeHn1hkrWTP9TMfmPanrGcl6UjC8SEW3PkBcwgwdHiQijQJlUenj2D1KxhJkn1K3dB3JT04iLcblB/b/jAOOp4aIV1m4u/X9ZRqNgYUbmxn5D8BQYkeqqqtMLyfZ266GD6A0+lKBJ9y5Ez8ZLysvPr1iDbkDk/YP4XSMnSsWVxLedurqDN/6KtcYU5PSSlTTipIahber+0Wb17P0ju5GWSr4Vd2nNRgbuydT4hFu799O5/vTozOQVfuFPIUMHCskvRPkfPx37nnGz4H968frO3oN0dsLwQVjfHdh328Pntx07gua1/dGTkz8tYWCjEk6dufHbLkZVqV7jRqRFygoKX/xxXYV1znhF9jgSX0sg0pf381+E+Ze4pIQJM9PpGhm1ih5I/O3z/NXxGCauDJPzPvXi6vU0CnqEBDN/rWfgqGX+xeFwfMLbtR42mEZBPAVGKm7fodzUD9S31zczaz9uFGObw+Vye3w/m0PyPEv8yTMfnz5HT6CI9pNfHA6n/6olVq7O2IcKGj0nXb9FfL4IBN5hbeRSgfYTRvO1iO+lr2zY+uziZUbtyfLCwgPT59JIErkCQeiYEeiKrKBnYtJiIJ3feB+fOnN7137mNERcXn5g2uya6mriux1jo5YD8Cs3sFKziG6m9ezplb134OjVTduYNqw6PDuGaTvZxb8pjVJ/bNiqwjQn6WYc0fb6ZuYK+HIxJtq+ukqam/aBCUe81bBBNCZ9e3js1G3yJVkVSlJZuX/KTKmEzvzOYRNH4wLLCjx1bVi3eTO82tNZlghPgVFXmpd/ae1moiJdZk6R+9vy8uXg6x3Qi+QVJJns5I9LWLEwkMrRfvKLw+F0njnFp2N77ENFyEx+eyxmEY2C3u3a6hoby6UOZg72LQcPoFFw35TZr8iTOwWprqraM35aQTqdX1D8e3Zn7IOx8L/ajRmuS+vNl9NLVyXdimNIK4798HPOuxQaBUOiB8n9wQcA5eBraXWbPZ128fOr1l6nNV+eIry5e3/XiIk01hFSNEsXJxohY2bSm4fHTqrqjubVtZtEReo18pZ7NQwsiTO19GcvmHDEdY2MwiePpVHw1MJlD38/xZB+K5PJjsyMyXiZRKOsR6uWTk0bc4AN1Db/4vJ4A9eucPClc23CdPhUBwGr14lLSqhvb+flyYrZbTrPmkr0HvvHp8+ZvzCQytGe8J7D4QT0jmg3Fo/GKERxdvb2EePEZWU0ygYN6CPHmnSYNFbfzIy0VI2katfYya9v3Fb5nqyprj4083t6M/jyhFphE/CzIZvoGhuHTx5PZ3gtle4aNfntnfsqb8LFX9YnnDpLo6C+mVmr6AHoA8Bevp3CnAOa0i5+dumqS2s2qfyHz+eXru4YNp7Gyq1K2snhdH6zPL1oZSH5OtR1d3PX3uoqsrmoHJs0kns1aKyo+yEhkSFHvOWgKEtnJ/IvRdmROTGPjjEiAjuzeGXiuQv0ynaaNgGXVrbgqXHbhDo6w7auNXGwo1EWL0LWKuNV8sOjJ4iKRC6Yx+WxoMsZmJu1GzeSbDC0fI24vBy94t/U5bVHz9YhvRcvwD5UhPz0T+u/G1KYQWesadPAwz04SI6V0TbQ7zp7Ko2CNZKqXaMn3jt8TIV7sloqPTwr5knseXrFQ0cONbW3Q4dkl6ABfa3dXGgUlErE20dMUG0Edn3brit0l5/vMmuqtqEBOgCwWuSCedw6TGB3ed2mQ9PnVYnFKqm8TCa7vm3X7nFT6L2lpRzNetL5wVtcUrJzzCRJZaUyq5qdknpj+x7SUvWb+Mm9JmbkD80lxJ5X8u76N3wtrYgf59Lr0Idnx1xZv0WFmbJMJjuzbPXNnXvpFffvHUHvmRtQCZ56N8/Qymr8wV0mtjY0yuJFyG87tXAZ0Rw3jbt3dmrWhC2tI52kvzgn59rm7egV/6gurz06NvEbvHE1X0sLu1ERx2Vd70H5dC9xHSaMqfvKj38fLvfq4dGqJY2C1VXSY/N+PPHjYpUszlVZVrZjxITHJ2NpjncdHdqNH4UOyTp8gaDv8oX0ftSRiiu3Dh1z7+BRlYzyz6349ezS1fSKO/r5YpVSUAO2DTzajxlel//w+NSZtZFROe9TlVzzsoKCXaMnnV26msPsmTdsPNycmtF5HSzjxevdoycrLVsUl5fvHT+1RlJFVEpkoO/g7SX/bunpTlqkoqg4ge5vb3Ln0bJFQJ9Iet9MF3/dsH/STJWskiyVSA5Nn0d7EQk9E+Ouc6ZzgD14at9CEzvbUXt+0zczpVEWT4H9m6cXLqU8eER9e4FIu+usqSxqoEAo7DpnBlGRG9v25KcjLf27ujz5Va+R9+jdW7Dgo/y/6cWSS2s2bRk4vCQ3l95/qNfIRxHTsXG53O+W/aRjaEiv+J29h9b16p/19r0yd2bWm3dre/RLrsOMTr0Wxgi1tdEt2cjRz7f1iCH0ysqk0mM//Hws5mdlPkJSUVS8c9TEa1t20CvO1xL0Wjhf7sE3gEq0Hz/asm6L6mQmvVndtc/1bbuU9tNL4vlLK8MjX1JbJ5HL47k0D1DhHm4zahi9gsm372wfNra8qEjRNawSi3eNmpSV/I60oG94e4FIKP+bVns7EfksyRdXr1fCvqKoxw+z6T13wuFwEs9d/KVr7w9PniqzwvmfMjZ+N+RxHeax6Tpnhr6pCa6oLMLThEZaujiNP7zHwJzOOh14Cuwfvy1il6wiKhI6Zrgx3auhqnh3CPUICSbIFCTis8t+Qff4q7o8+WXn5Tly1xZMsSxfMpnsxZVrKzr2uLxuE41F3/5vTM3t+dM8Bd0DG1lb9Vr0A+3in56/+qVrn2tbdkjFEkXvzJrq6ls79/3ao19OCv3f/1sO7u/RsgV6Jnt1nDrB2tONdvF7B46u7twz5VGCEqqadCtuVdder67eoP0fOs2YYufliYMO6kEgEg5cs5KvVacUQyquPLt09S/d+zy/dFWhb2+lPn6yddDIfROml3z5QrFIi4Hf2Xs3UOEe9mrXxo5uBd7de7gmsl/Gq2TFVa80v2DroBFv79J5FT2wb09FVInL5dZr5EtaqiQ3d9foSZW0JnKVO20D/X4rF/P4fHrFc1M/rO8z6OzyX5TQHJlMFn/89C/d+nx8+pz2P/EJDwvoE4HLKbvwNKSdli5O4w7tohmBYTr8/3Z96y6iCYOMrK3bjopmY0t7xMwmmh7i6YXL9Ga/Vkt1mfDezstzzL7t8lpbEDgcjqSi4tGxU6s6R+4aPSnvQ3pd/lVI9AAHXx/FVbVx184hQwfSLl5dJTm34tflYV0fnz6ruLuR9w/i1/bsf3rRcnrx7lf2Pg27zZ2BzslqWiJR9MY1ojqsa5yb+mFjvyFH5y5Q3KzPuWkf902csS16DL3J/r5ya9miDd2H3QCYya6hR+SCOXX/P1lJb3ePnby6a+/nF/+Q+/fO+wfxmwcO39Bn0Js796iXMrG16Txtkmp3L5fL7fH9bNrF89LS10Z+d3ndFkU8JPvm7v013fumxj+h9d3tpbgZXTxC6PwklvLw8fqe/euS48iRa1BAp5mTaReX1dRc37pzaZvOdw8cUdyTlZ9evN4yaMShmd9XFBXT/icmDnb9lv+MCynr8DSnqYjA5KIoK/s64asT3b+fLtTRYWNjrVydW/QnW+Hu1MJl9B+rUSMIvxii5Ete4rkLB6fNXdCs1eFZP9B4yP/vJ4WLcxfFv8vcbc50J/86LSOd/+nzwalzVoR1j9t3SI6/IspksuTbd7YMHrUpKvrT8+nEjrcAACAASURBVJd1+Vc6hoaD1/+iiBcoQMksnByjli+qY8d6cOT44tDOx2J+zpPre/SfXrw+POuHFWHdEs9drMv/MbK27r96Md58BPUT1L9v04hucvlXma+Td4+bsrJDjz82/valbr8zcTic4uzs27v2r42M2hQV/e7uA6KyXB4v6pdlTFinwiWwWZOIrrSLV1dJL63ZsLxd14dHT8rrse789E/7p87eOnBEAd2fHMKnjFfcHvNsFUyvYNbb92sjozZ8N+jRsVOVxSWqPe5tRw716RhWl/9Qmpd3PGbh0jadrm7dUV5YKMe6pcYn7B479dfufUhPq7/hawmjN/yC1WDYSKBRrf0agW2KGkr94eE/fY3Axh3cTWNtDnVydsWvRGst12/cqFHnjuxtb8epExLPXCgroHrlzUx68/DoieZRfTS5kyD8UrKa6urK0lKOTFaaV1DyJa8oO/tLWnrmm7eZr5NzU9Pk+EEiPb3oLWu1RCJFt4ivpTV0y7r1vQfVsf45KaknFyw+v2qtT1ioT4f27q1a0J5pKzPpzdOLVxJiz+alpde9gTyhVvSWtRr+baJOfDq27zxzyvmVa+p0Ikuq7h04eu/AUSf/Js0ie/h2bEf7SliQ8fnZxT8Sz16Qy+MAQl3dETs2GlpY4ECDWuq79Kf8jE+pj57I5b9lv0+5sHrdhdXr7H0aNuoU7tjEz76hB8XJHCQVFZlJbz48efbs0pXU+Ce0Z7jvMGmcS0BThuzeyPlz3t97VJSdTfs/FHzOPDIn5tzKNQF9Ivy6dKL3Fna1VPru3oMHh48/v3y1Lj9UuwYFNGzbSnG7y8bDzdrDlfavlamPnqQ+enJ41g8mDnb2DRuaOdpr6+mJ9PSEOrUPfrR0dZr26CqXVnC53P6rl2zNzkmr22ReBZ8zzy//9fKazd7t23iHhzZo3Uqb7tPWuWkfn1+88jj2bFbSW7m0cMCapfY+XhxgIYGmNRgRWF18ePI04dRZoqtDxIK5rP7FWNfIqMOkcSd/WkK9yLnV6xp1DtcxMtTMToLw6988PHbq4bFT7K0/l8fr/+sySxcn5XycnonJqD1b1/UaSHuS/j+JS0rjT8TGn4gViLTr+fnUb9LIsZGvhXN9E3vbb8Rhxbm5WW/fZ795/yHxacqDx3UZu//vhbH/qsWuzf0xBFEn7caOKMzMvLv/SN3/VeqjhNRHCb9//6ONh5tLYLP6Tf3M69e3cKz3jXF/aX5BzvvUnHfvPyQ+S41/Isfgm8fnD96w2raBBw4xqO29kEg4dMu69b0G5KZ9lOO//fT81afnr75e8y0cHey8Gpo62OkYGuoYGmgb6mvrG4jLyyuLisuKiytLSoo+Z6e/eJmbkka0tPo/8u0cHjZxNIMG0sbG/Vcv2TpkVB1fjyjNy7u2Zce1LTuM7WxcAvydmzW29nCzdnX5xgM45YWFWW9TMl6+TolPeHf3fnlhXSeJ5wm1ei6MUfQeC+zT6/Si5XX8JwXpGQXpZAu4mdjayCv/4nA4Qh2dYds3bOgzuC5zpH4lFVcmnruYeO4iT6hVz6uhY+NG9Zo0snZ1Mbaz0dbT+8bXYvbb99nv3n948jQlPiFfrm9x9fh+VqNO4bh4svWar4FtRgRGj0wmO/nTUrIreN+eDr7ebG94i4Hf3Tt8lPpPMeX5BVfWb+n+wywNPLkQfqmxvkt+8m7fVpmfaGpvN2b/9s39h5Xm5cnlH0rFlSkPHv117Vp9MzMdQwOhno5IT5/P54vLSqul0tIvBaX5edVVipp1IiJmTuOundGj1E/kgnkVJaVPTp+T15duZtKbzKQ3cXsO/l93NRXq6eoYGgh1dARaQkl5uVRaVZZfUJKbX12lkAUfuDxevxULG7QJwcEF9aZnYjJm/44NUdGkkQHFczk37aN8w7V/49SscdTKRUz74dm1RWDXudNjF62Qy38rzMh8fDL28cnY/+Qs2joG1uba+vpfL4wVJSXi0tKK4tLKklKpRM4Th3WdNdXKWeG/Ajbr2e3irxvEzJjPvo6n1ei9v20aOEwuD85zOJwaSVXak6dpT55ydv75Eca6RoZCfT2Rri5foKWEr0UOhxM6dkSrYYNw2WQvgWY2GxEYDY+OnU5/9oL69kJd3Y7TJqhBw3l8fo+YOVsHjqBe5Nbeg4H9+yjhO5JREH6pLS63188/BPSNVP4nW7u5jD+6Z8uAEUVZWYr4/6V5efIK1yjuyd6LFwT1640+pZZ4fP6A1Uu1tLQU9KRnaV4+Jy9fmc2J+mVpk27IakEjGNvajDuwc2NUdF2WiVAtOy/PEds3MXPK3dbDBuempt07cFTu/1lSWSGveOXbmkZ0az1ssBI+SNfYuO2ooRd/3aAep9X4w3u2DByR8y5FEf+/rKCQ+hw1chE+ZUKHSWNwwWQ1gca23NLFafS+bVsGDi8lH00Wfs5a0zPKxNZao/YY6VyeHSaPVZvpQtxbNPdq3/blH9cpbi+TSmMXrhi5a7PmdI83d+/vGD6B3lp49j5eY/Zu09g3RhmOryXot3Jxk+5dVHatdqo/4cjubUPH1v0RetXi8flRKxc1kdNEy8BMXB6v77Kfhfp6cbsPsLu7CrUGrVnu27EDjiloDlN7u4lH9m4bOibr7XvWVb5eI+8ROzczeTbuXj/9UFlS+iT2PBv7hoOvd5+lPyrt40KGDbp74GhxTo4anFZGlpbjD+3eOXLCh8RnbG9L9x9mKScDBYUSaHLjbTzcxh/eQ+8psPL8gvL8AnSgfx1D1LMPGTxAnVrU44fZr2/F1UiqKG6fdPP26xu3NeS1kfcP4neNnEgv/LLz8hy9ZyvCL2YyMDcfsukXxa3zTfV64mA/+cTBvRNnJN++w9I9qWNkOGTDL27BzdGp1B6Xx4ucP9fS2enUT0tZuhywvplp9Ja1Tk0b42iCpjG2tZn4+/5dYye/u/eQRdX2CAkevOmXb8yFxJBrY//VS7WEQtbNhWpRv95QpSz+8ydtPb2o1Yu3Dh5Few0Epn2njD206+jcBWSzSDOJQKQdtWqhX5dOuEiqAZ6Gt//ri5AG5uboCvIVETNHIBKqU4vM6tm3Hkr2svfJn5ZIJRK1P9Z47VFduQcHTT17VOXh13/GgoYGI3ZuajNqKIeF62lYujpPOXUE4ZdGCR7Yb+TuLfpmZqyrubWn2+SThxB+gcbSNjQYuWtLy8H92VLhlkP6D9+xkeHh139uO/n8vssXth8/ikX9wa6hx/ij+4ysrZQ/BgsdM1xtTistkaj/6qVd507nCtj38I2xrfWkY/sRfqkNHnYBIjC5c2vR3KtdG/VrV9j4UUT9JO9D+p39h9X7WCP8UktCbZ3IBfNG7f3NyNKSUePmbnOmj9m7zYBVL1Y3jew+5cRBc0cH9CtN4x4cNP3CcbeWLVhU58B+vScdO2Bqb4fDB5pMIBRG/jhv0IbVImaHSkJtne+WL4pcMI/PnkyBy+V2mj6J+fv2K+eApuMO7jYwV80vGZ1nTA7oHaE2pxWXy207cujkY/st6tdjUbUbhraecuqInZcnLoxqA/kXh/N/c4Hpm5liV8iFlbuLeoYCenpGNmS//2QrZrpHhnhz9/5v0WPohV/2Pl5j9+9E+MVAfl06zr56puWQ/lxGPmnlFtx85sUTzXp2Z/6e1Dczi968tv/qJSJ9ffQrzWRobj56z9bIBfOYf6enb2Y2bNuGvkt+FOnq4sABcDgcv87h088fdw0KYGb17H28pp77PaBPBEv37axLpzxCgplcyZbRA0bt+U2FU6pxudw+S38KiuqjTqeVg6/3lDO/t4wewOUxPYUQGeh/t2zh8O0bVRWAgoIg//qPr3OB4Skwubiz/0g2y2eq/kePT8R+ev6S+vZCXd3wKePU9Shjzi/149oicOKx/YPWrzK2YfTiHnomJlGrlow9sNOSsUuscrn+vSNmXjzpE94O/UrDcbnclkP6z74S6xPenqE15PECv+s18+JJtXxwG6AuzBzsx+zf0XvRfJEBg+aVFwhFnWdOmXRsv6VTffbuW2Nbm1F7tn63bCGj9u1XRlZWo/dti5w/V5lzfv3zjTqf33vxgl4LY/ha6jOrjLaeXuT8uVNOHXHw9WZsJX3C2888f0IlS5+Dwk8r7II/4UVIeZFJpbGLV6pZoyQVFedXrycq0mHyWEa9PiZHeO1Rrb4G+HyfjmHjj+wdu39H/SZ+bKm2a1DAjAsn+ixeYGRlxayKtQicFvt7vxWL8Ewx/P+7KWur6M1rxh7YWa+RD6Mq5tI8YGrs732X/oTuCvCPuFxuUP++866fDxrQl8fnq7w+DUNbz7x0qt3YEXwtLTXYvQF9I+dcPtVi4Hc8ISOaw+PzA/r2nHnxpHtwEHP2UosB302/cNw50F+dzix77waTTxwcsHYF016HdPD1Hnd4T/TmNSZ2trgAqiUBdsFffY3A6K0ICX+VdP2Wmq1+eGXj1qKsLOrbq98KmH9C+KU2LOrXaxLR3b9Xd5Z+x/O1tJpH9Wnas/u9A0dv796X/+mzauvjHhzUZvRQD1bN9wTK5BoUMOnEwReXr13bsv3j0+forgBsoW9q0nvh/JaDB/yxcWvi2Yuymhrl16FeI5+uc6a7BDZTs31raGXV6+eYdmNHXtu6497hY9RXWpc7387hHadNsGLko+VWzk7jDu58eeX6lY1biV5GYTIuj9ekW+dGnTrEn4y9sW13jqonjXH0820zKtonPIzLwqWWgDrkX3/3dS6wLQOHl+bl0yhuYG4+ctcWE3sb9dszf6zfenPnXurbxy5a4R7cXD1+nspP/3Rz216iIj2+n6VmK2B+9ebu/R3DJ9B77dHex2vM3m147VHVww2uvXfDhm1be7Vrbe/jpQYN0hKJWg0b1HJI/xeXr8XtO/T+wSMlrxcuEGk37tax9bDBNp7u6F9Q2/nH9Qlv5xPeLi0h8daOvc+vXlfyzZ5ApN2oU1jr4UMwmy8AKWs3l4FrVnScOvHGbzsfnz4nKS9Xzud6tm3VdvgQ1xaBarxvjW2se/74fbsxI+4eOBx/8kzh5yylfTRPqOXdPrT92JEMvypyuVzvDqHeHULfP4iPPxn79MIVcUmJGhx6vkAQ2KdnQO/IN3F3b+0+8ObWnZrqaqVWQEvg3T609Yghjo0b4SqnCZB//YOvc4HRewqs5MuXnaMnjDu028zBXs12S/iUcQmx56nvk5yU1Li9h1oPH6wGbY9dsrq6SkJ9e9cWgd5hoep3amDOL5Yytbe19nC39XSv37SxUxM/FU7mqsDxK5/v2ynMt1NYQcbnhNPnEs6cy0p+p+gBk0dIsF+3Tl7t27Ji4XlglPpN/Oo38SsvLHxy9mLCyTNpic8Umtvy+Hy3Fs2b9OjsHd4e3RWgLswdHXovXtB13oyn5y89OnYyNT5RQSevsZ2Nf2T3ppHdLZwcNWTfGllbdZo+uePUif+JeM5fVmjIaNfQw793z6YRXdj1XoJLYDOXwGa9fvoh7fGTd/cfvnvw6HPSW7ZnYVwu1yMk2CMkuPjLl8TYC49Pn1X0Y25cHs+luX/j7l18w9vpGhnhyqY5uLkFSdgL/yjnfSrtFyGNba3VMgJ78PuJo7PnU99eZGAw79o5ts8q8u7ug80DhxPdZkw7e8zGw03Njj5ee/ybfRNnymqqmVMfoZ6ulrZIpKcn0tPT0tbWNjQwsrQwsbM1tbcV6uho4DW8IONz0s24pJtxaQlPS/Py5PVvrT1cXYMC3YICXQP9mZwkisvLj8z8gaiId1jbJhHdWHFwj8yOEZeWUd/et0u4X+dwJreoNC8/+Vbc65txKQ8TiN61/zYrF2e34OauQYEuzZsxdnwft+dgysN4gi9ZLcHANStY0VGfXbiSePYCwWVcV6ffysXyrcOx738qLyyivr1tQ8/240fhLoC6ki95L/+48erajdT4BKJd/W9jSNuGng3atvIKbWXv413H97DiT5x+dfUmUZGO0yZaujDlBUBJZWVqfELKg/j3Dx99ePpCLk/Ligz0XfyburYIdA8OUqexemFmVk5KanFWTtGXLyU5uZKKyhqpVFJGkB7qmZn0+jmGOS0q/vIl6Xpc8q07qfEJRdnZ8vq3Fk6Ors0DXIObuwb6M/wW9cC0OdVigscvnPybhkSr59w78oX861sQgf2NrKZmTWQUUR4fFNWn9+IF7G1yTXX1L936ZCa9oV6k5ZD+kQvmqdm5gPALWC0//dOHp8+ykt/mpH7MTU3L//hJXFZ7eiIQaRvZWBhZWlq5ONs08LB2c7XxdMOPhKDwQX929ocnzz8nvclJSc1NS8tPz6goKq69uwpFhtYWRlYWls7Otp4e1h5utg3c0V0BlDdIlsmy36WkPXmalfw26+37nHcpxV++yKTSWkIHE2Nzx3qWLk4Wrs6OjXwdfL1EurrYmf9LUln5MfF5VvLbLx8/5qZ9zEv7mJeRUWsixhUIzO1tzRwdzZ3qmdevX9/P286rIRPWMQAiRVnZHxOJvxb5WkJDawtjK0sLZycbdzcbDzcbT3cs9gLIv2qBCOxv0hIS1/ceSNDDeLypsb/bNfRgaXvvHjhyPGYh9e11jAznXjunZ2KiTgcd4ReonyqxuCwvvyS/QFJWXi2tkkqqODKZQCTU0tbWEgqFurqGlhbaBvrYUcAEUomkNC+/NK9AXF5eXSWprpJWS6VCHW2BUCTUFgm0tQ0tzRF1ATCNTCYrycsr+5JfWVZWVVkplVTJamq0tEU8Hl/H0FDfzETP1EQgFGJH0dy9NTXlRUWVJWWSigqpuLKipFRSUSnU0dYSiQTa2rqGhlq62nrGxnwBZvtRz6/FsvyC0ryCyrKy6ipJjVQqrfrvr0ULM9x9wD+nE8i/aoUI7G/2TZpJ9Dy/S/OAcQd3srGlFUXFS9p1Kc8voF4k8qfvWw6KUqfDjfALAAAAAAAA2I6HXVArSxencYd2GZib0yhb+DlrU1R0Xvonddoh3eZOF2oTTCf0/v7DZxcvs7Gll9ZtIgq/rFycg6L6qNOxRvgFAAAAAAAAagD5FyWIwP7K2Ma69ahooiJnlqyqEovZ1cyc96lx+w4TFekxf7Y6PWWN8AsAAAAAAADUA/IvqhCB/VXomOEmtjbUt8//9Pnm9j3sauOphctrnbX0r7w7tPMICVabQ4zwCwAAAAAAANQG8i8CiMD+JNTW7jx7KlGRq5u2Fctv8VpFe3XtZvKtOOrb87UEXWdPU5uujvALAAAAAAAA1AnyLzKIwP7UpFtnJ/8m1LeXVFScXbGWFU2rrqqKXbyCqEjrEdEWTo7qcWQRfgEAAAAAAICaQf5FDBHYnyJi5nK4XOrbPz4Zm/IogfnturX7QG7qB+rb65uZtRszQj2OKcIvAAAAAAAAUD/Iv+hABPaVvXeDgN4RREVOLVwqq6lhcqNKvuRd2bCVqEjX2VO1DfTV4IAi/AIAAAAAAAC1hPyLJkRgX3WeOUVEEv1kvHj9+NQZJrfowup14pIS6tvbeXk269ldDQ4lwi8AAAAAAABQV8i/6EMExuFwDMzN2o8fRVTkzNJfKktKmdmcjJdJD38/SVQkYv48Lo/15xHCLwAAAAAAAFBjyL/qBBEYh8NpFT3Qon496tuX5uVd/20HM9tC+npmk4iuziSLADATwi8AAAAAAABQb8i/6goRmEAo7Dp3BlGRa9t256Z9ZFpDEs9dSHn4mKDhIu3O0yexvQMj/AIAAAAAAAC1h/xLDhCBeYeFeoQEU9++RlJ1bvmvjGqCpLLyzLJfiIq0HzfCxM6W1QcO4RcAAAAAAABoAuRf8oEIrEfMbK5AQH3755euJMfdZU79r2/dVZiRSX17I2vr1iOGsPqQIfwCAAAAAAAADYH8S240PAKzcnUO7t+XqMipn5dVS6VMqHxRVvaNrTuJinT/YaZQR4e9xwvhFwAAAAAAAGgO5F/ypOERWPjU8XomBJlIzruUB0eOM6HmZ5atllQSJEGOTfwaderA3iOF8AsAAAAAAAA0CvIvOdPkCEzXyChs8niiIudXrS0vLFRttdMSEp/EnicowOX2XDCXy+Wy9DAh/AIAAAAAAABNg/xL/jQ5Agse0Nfa04369hVFxZfXb1VhhWU1Nad+XkZUJPC7XvY+Xiw9QAi/AAAAAAAAQAMh/1IIjY3AeHx+jx9mExW5s/dg1pt3qqrwo2On05+9oL69SE+v49TxLO2WCL8AAAAAAABAMyH/UhSNjcDcWzT3Dgulvn1NdTXpE1jyIi4tPb9qLVGRDpPHGVpYsPG4IPwCAAAAAAAAjYX8S4E0NgLr/v0svpaQ+vZv795/de2m8ut5ZeNvJV++UN/ezNGh5aAoNh4RhF8AAAAAAACgyZB/KZZmRmBm9exbDx9EVOTUwmVSsUSZlcz7+Onmrn1ERSLmzxWIhKw7HAi/AAAAAAAAQMNxcwuSsBcULTP57ZaBw0vz8mmUNbW3HXtwl6m9HbuaLC4tXRralejpqrAJo4lenKyjS2s3ET105hESPGrPVtb1vTd37+8YPkEqrqRR1t7Ha8zebTpGhjiFAQAAAAAAgNWQfylJzvvUTVFDifKgPxnbWo87tNvMwZ5dTX549OSROTHqcfh4fP70c8et3V3ZVW08+QUAAAAAAADAwfuPSqOBL0L69+7h4OutHocveHB/hF8AAAAAAAAALIX8S3k0LQLj8ngR8+eowYHTMTLsMHE0u+qM8AsAAAAAAADgT8i/lErTIrD6Tfwa9+jC9qPWZeYUdoVBCL8AAAAAAAAA/gr5l7JpWgTWbfY0obYOi4+Xq3NA354sqjDCLwAAAAAAAIC/Qf6lAhoVgRlZW7UZPYy9Byti/hy+QMCW2iL8AgAAAAAAAPhfyL9UQ6MisLajhxrb2bDxMPl0DPNo2YIttUX4BQAAAAAAAPCPkH+pjOZEYEJt7W5zprHv3BBqdZk1lS21RfgFAAAAAAAA8K/3+NgFKqQ5EZhfl07OAU3ZdXRCR0Zb1K/Hiqoi/AIAAAAAAAD4BuRfKqY5EVhEzFwujzX9Td/MrO2o4ayoKsIvAAAAAAAAgG9D/qV6GhKB2Xl5BvSJZMtB6TZ3mraBPvPrifALAAAAAAAAoFbIvxjhawSmb2ZGoyyLIrBO0yeJDAyYX896jXyaRnZnfj0RfgEAAAAAAABQgfyLKSxdnMYf3q3eEZiBuVnYhNHMPxYRC+ZyuVyGVxLhFwAAAAAAAABFyL8YRBMisJAh/S2cHJlcw6aR3R39fBm+GxF+AQAAAAAAAFDHzS1Iwl5glJz3qRv7RZfm5dEoa2xrPe7QbjMHe+xGNYbwCwAAAAAAAIAInv9iHE14CgxoQ/gFAAAAAAAAQAr5FxMhAoN/hPALAAAAAAAAgAbkXwyFCAz+BuEXAAAAAAAAAD3Iv5gLERj8CeEXAAAAAAAAAG3IvxgNERhwEH4BAAAAAAAA1A3yL6ZDBKbhEH4BAAAAAAAA1BHyLxZABKaxEH4BAAAAAAAA1B3yL3ZABKaBEH4BAAAAAAAAyAXyL9ZABKZREH4BAAAAAAAAyAvyLzZBBKYhEH4BAAAAAAAAyBHyL5ZBBKb2EH4BAAAAAAAAyBfyL/ZBBKbGEH4BAAAAAAAAyB3yL1ZCBKaWEH4BAAAAAAAAKALyL7ZCBKZmEH4BAAAAAAAAKAjyLxZDBKY2EH4BAAAAAAAAKA7yL3ZDBKYGEH4BAAAAAAAAKBTyL9ZDBMZqCL8AAAAAAAAAFA35lzpABMZSCL8AAAAAAAAAlAD5l5pABMY6CL8AAAAAAAAAlAP5l/pABMYiCL8AAAAAAAAAlAb5l1pBBMYKCL8AAAAAAAAAlAn5l7pBBMZwCL8AAAAAAAAAlAz5lxpCBMZYCL8AAAAAAAAAlA/5l3pCBMZACL8AAAAAAAAAVAL5l9pCBMYoCL8AAAAAAAAAVAX5lzpDBMYQCL8AAAAAAAAAVAj5l5pDBKZyCL8AAAAAAAAAVAv5l/pDBKZCCL8AAAAAAAAAVA75l0ZABKYSCL8AAAAAAAAAmAD5l6ZABKZkCL8AAAAAAAAAGAL5lwZBBKY0CL8AAAAAAAAAmAP5l2ZBBKYECL8AAAAAAAAAGAX5l8ZBBKZQCL8AAAAAAAAAmAb5lyZCBKYgCL8AAAAAAAAAGAj5l4ZCBCZ3CL8AAAAAAAAAmAn5l+ZCBCZHCL8AAAAAAAAAGAv5l0ZDBCYXCL8AAAAAAAAAmAz5l6ZDBFZHCL8AAAAAAAAAGA75FyACow/hFwAAAAAAAADzIf8CDgcRGC0IvwAAAAAAAABYAfkX/AciMCIIvwAAAAAAAADYAvkX/H+WLk5j9m/XNTWhUbbwc9aWAcM0JAJLjrv7W/QYeuGXvY/X2P07EX4BAAAAAAAAKA3yL/gvNh5uE4/spfcUWP6nz+t6Dsh4maTeu+jZhSs7hk+QiitplLXz8hy9Z6uOkSF6GgAAAAAAAIDSIP+Cv6vLi5CleXkb+g5Kjrurrjvn9u4DeyZMq66S0CiL1x4BAAAAAAAAVAL5F/yDukRgkoqK7SPGJ567oGb7RCaTXVyz8dTPSzkyGY3iCL8AAAAAAAAAVIWbW5CEvQD/KDP57aYBw8rzC+h0LB6v0/RJoWOGc7lcNdgVlSWlv8/7MfHcRXrF7X28xuzdhtceAQAAAAAAAFQC+Rd8S8771I39okvz8ugVd20ROODXZYYWFqzeCekvXu2bND0vLZ1ecTz5BQAAAAAAAKBaeP8RvqUuL0JyOJx3dx+s7twr+fYd9u6B+OOnN/QehPALAAAAAAAAgL3w/BfUri4vQnI4HC6P13bMsLAJY4Ta2ixqdVFW9vH5i17+cZ32f8BrjwAAAAAAAABMgPwLKKnji5AcDsfIyqrzjEnNevVgfmOrq6ru7Dt88dcN4rIy2v8ET34BAAAA/L/27v2n6jIO4Dg3Dx3E1ExzOkVEpZqQNgzULJdhNSuX2lplyy1dOYI6xgAABWJJREFUrXVxtcpVznXzh1xbNVvqct1ra3OtfshReMtVFkYaQpkEaJgKmikBKXLoD+iXlIN+eXq9/oDnPM/3+Zxf3jsXAIgI/Yv/qvsJLCUlZcyU4rnPPD0kLzeyx6z95rt1y55vqq3rziLiFwAAAESH/sVpOLB7z6r59/x15I/uLJLeJzb5jnnTFy4YOHxYpE63d8eP5a+tqdmwuZvrjCgcf+/ba3ztEQAAACJC/+L0HKqrXz1/0bGDB7s7eRkZl994w4z7F100ZvQ5P1RdReWm1WtrNm7p/lK5kyYufOP18/plGxUAAACICP2L03bkt8bX599z9Lf9yRjA1IKZ15bcPnfc1Mlp6eln+SB/t7buKivf+vYHjVXVSVkwf9rUBatejsXjhgQAAACiQ//iTBxvbl678IFkZaOUlJSsAf0Lri8tuuXm3KKJqampPbr5RGdn7bbvtq/7tKqs/GR7e7KWnTR39rwXlmXEYsYDAAAAIkX/4gydaGt7f/ET1eWbkrvs4Nyci6dfNaZkUt4VRcn9Ca2j+3//dVtF7bcV1Ru3tP1xNLnbvm7xAzMfus9UAAAAQATpX5y5RGfn+pde3bhqbc/MZurwS8aNLr5i5ISCIaNyLhyVc7o/qtVy+EhTXUNzXUND5Q+131Yk5wub/xKLx2978dkJs24wDwAAABBN+hfdVVW24cPHnzrR8ldPv1D2oEGDR+dcOHJEZnbfWFZWvF+/WN+szHi8M5HoaG072d7e3tJyorW1/XhLc31Dc8O+s7ClwbmjFqx6ZejYPGMAAAAAkaV/kQTN9XvfW/xYY1XN/+rUE2fPuvW5pZnZ/uoRAAAAIk3/Ijk6T536YuXq8pWruxKJ4A+b2bfvnGeeLJoz270DAABA9OlfJFP99sqPlixrqqsP+IwXXz1t3vNLBw4f5roBAACgV9C/SLLOjo4ta99Z//LKxMmOwI6WPWjQTUseKZrrY18AAADQm+hf9Ijm+r2fLl9Rs2FzGMdJ75Nx5V13lD54X7z/+S4XAAAAehf9ix6056ttnyxfceCn3b36FONLr7lxyaODc3NcKAAAAPRG+hc9q6urq3rD5s9feW1/de+btLFTSmY9/vCIwgL3CAAAAL2X/sXZ0JVI7Pp846Y33tpbuSP6u01LTy+8vnT6ogUjCse7OwAAAOjt9C/Oqn07q758890f15d3dpyM4PayLhg4ac7N0+6+0987AgAAQDD0L86BtmPHvv/ks+3rPm6sqonE2yAjI3/alOJ5t1w64+qMWMwFAQAAQEj0L86lI/sad35WtnN92TkJYWmxPmNLii+bNbOg9JqsAQNcBwAAAARJ/yISjh8+vGfr1z9v/frXbyqOHTrUkyOfOiQvd9zUkvyrrswrLsrMyvLwAQAAIGz6F5Hz54GDDZU/7Nux6/fdew79Unu8qalbI56WdsHI4cPy84fmj82ZUDhq4mXx/ud7yAAAAPD/oX8BAAAAELI0jwAAAACAgOlfAAAAAIRM/wIAAAAgZPoXAAAAACHTvwAAAAAImf4FAAAAQMj0LwAAAABCpn8BAAAAEDL9CwAAAICQ6V8AAAAAhEz/AgAAACBk+hcAAAAAIdO/AAAAAAiZ/gUAAABAyPQvAAAAAEKmfwEAAAAQMv0LAAAAgJDpXwAAAACETP8CAAAAIGT6FwAAAAAh078AAAAACJn+BQAAAEDI9C8AAAAAQqZ/AQAAABAy/QsAAACAkOlfAAAAAIRM/wIAAAAgZPoXAAAAACHTvwAAAAAImf4FAAAAQMj0LwAAAABCpn8BAAAAEDL9CwAAAICQ6V8AAAAAhEz/AgAAACBk+hcAAAAAIfsHVwe1X1K44PMAAAAASUVORK5CYII=;" vertex="1" parent="CZO-bo_SYOmzc7dONZGa-1">
          <mxGeometry x="1859.45" y="1290" width="464.24" height="120" as="geometry" />
        </mxCell>
      </root>
    </mxGraphModel>
  </diagram>
</mxfile>
